<svg width="56" height="56" viewBox="0 0 56 56" fill="none" xmlns="http://www.w3.org/2000/svg">
<circle cx="28" cy="28" r="28" fill="#FFBE2E"/>
<path d="M41.1753 18.8864C39.4783 18.1746 37.7799 17.9038 36.0825 17.9038C30.6939 17.9034 25.3057 20.6311 19.9171 20.6311C18.5657 20.6311 17.2151 20.4596 15.8637 20.0309C15.7119 19.9828 15.5597 19.96 15.4109 19.96C14.658 19.96 14 20.5428 14 21.3517V35.2316C14 35.7842 14.3163 36.3078 14.8242 36.5205C16.5213 37.2327 18.2196 37.5035 19.9171 37.5035C25.3057 37.5035 30.6943 34.7757 36.0829 34.7757C37.4343 34.7757 38.7849 34.9472 40.1363 35.376C40.2881 35.4241 40.4403 35.4468 40.5891 35.4468C41.342 35.4468 42 34.8641 42 34.0552V20.1757C41.9996 19.6227 41.6833 19.0995 41.1753 18.8864ZM16.1 22.2884C16.9802 22.5089 17.8989 22.6195 18.8439 22.679C18.5867 23.9648 17.4562 24.9339 16.1 24.9339V22.2884ZM16.1 34.7569V32.6666C17.6036 32.6666 18.8203 33.8596 18.8872 35.3528C17.9016 35.2736 16.9802 35.0767 16.1 34.7569ZM27.9998 31.9036C26.0665 31.9036 24.4998 30.0228 24.4998 27.7037C24.4998 25.3841 26.0669 23.5037 27.9998 23.5037C29.9326 23.5037 31.4997 25.3841 31.4997 27.7037C31.4997 30.0237 29.9322 31.9036 27.9998 31.9036ZM39.8996 33.1189C39.1331 32.9269 38.3373 32.8193 37.5231 32.7497C37.7799 31.6087 38.7262 30.7425 39.8996 30.5937V33.1189ZM39.8996 22.7893C38.5482 22.6182 37.4995 21.4899 37.4579 20.0965C38.3128 20.1915 39.1244 20.3691 39.8996 20.6504V22.7893Z" fill="white"/>
</svg>
