<svg width="20" height="20" viewBox="0 0 20 20" xmlns="http://www.w3.org/2000/svg">
<path d="M6.80144 11.25H5.10502C4.8251 11.25 4.59609 11.0391 4.59609 10.7812V9.21875C4.59609 8.96094 4.8251 8.75 5.10502 8.75H6.80144C7.08135 8.75 7.31037 8.96094 7.31037 9.21875V10.7812C7.31037 11.0391 7.08135 11.25 6.80144 11.25ZM11.3818 10.7812V9.21875C11.3818 8.96094 11.1528 8.75 10.8729 8.75H9.17644C8.89653 8.75 8.66751 8.96094 8.66751 9.21875V10.7812C8.66751 11.0391 8.89653 11.25 9.17644 11.25H10.8729C11.1528 11.25 11.3818 11.0391 11.3818 10.7812ZM15.4532 10.7812V9.21875C15.4532 8.96094 15.2242 8.75 14.9443 8.75H13.2479C12.968 8.75 12.7389 8.96094 12.7389 9.21875V10.7812C12.7389 11.0391 12.968 11.25 13.2479 11.25H14.9443C15.2242 11.25 15.4532 11.0391 15.4532 10.7812ZM11.3818 14.5312V12.9688C11.3818 12.7109 11.1528 12.5 10.8729 12.5H9.17644C8.89653 12.5 8.66751 12.7109 8.66751 12.9688V14.5312C8.66751 14.7891 8.89653 15 9.17644 15H10.8729C11.1528 15 11.3818 14.7891 11.3818 14.5312ZM7.31037 14.5312V12.9688C7.31037 12.7109 7.08135 12.5 6.80144 12.5H5.10502C4.8251 12.5 4.59609 12.7109 4.59609 12.9688V14.5312C4.59609 14.7891 4.8251 15 5.10502 15H6.80144C7.08135 15 7.31037 14.7891 7.31037 14.5312ZM15.4532 14.5312V12.9688C15.4532 12.7109 15.2242 12.5 14.9443 12.5H13.2479C12.968 12.5 12.7389 12.7109 12.7389 12.9688V14.5312C12.7389 14.7891 12.968 15 13.2479 15H14.9443C15.2242 15 15.4532 14.7891 15.4532 14.5312ZM19.5247 4.375V18.125C19.5247 19.1602 18.6128 20 17.4889 20H2.56037C1.43649 20 0.524658 19.1602 0.524658 18.125V4.375C0.524658 3.33984 1.43649 2.5 2.56037 2.5H4.59609V0.46875C4.59609 0.210938 4.8251 0 5.10502 0H6.80144C7.08135 0 7.31037 0.210938 7.31037 0.46875V2.5H12.7389V0.46875C12.7389 0.210938 12.968 0 13.2479 0H14.9443C15.2242 0 15.4532 0.210938 15.4532 0.46875V2.5H17.4889C18.6128 2.5 19.5247 3.33984 19.5247 4.375ZM17.4889 17.8906V6.25H2.56037V17.8906C2.56037 18.0195 2.67488 18.125 2.81484 18.125H17.2345C17.3744 18.125 17.4889 18.0195 17.4889 17.8906Z"/>
</svg>
