<svg width="56" height="56" viewBox="0 0 56 56" fill="none"
    xmlns="http://www.w3.org/2000/svg">
    <circle cx="28" cy="28" r="28" fill="#FFBE2E"/>
    <path d="M32.6251 28.5398C31.8857 28.5398 31.1901 28.1288 30.8139 27.4711L28.001 22.6025L25.1924 27.4711C24.8118 28.1333 24.1162 28.5444 23.3769 28.5444C23.18 28.5444 22.9832 28.517 22.795 28.4576L16.8017 26.6673V34.7968C16.8017 35.4682 17.2391 36.0528 17.8604 36.2127L27.3185 38.6835C27.7647 38.7977 28.2328 38.7977 28.6747 38.6835L38.1416 36.2127C38.7628 36.0483 39.2003 35.4637 39.2003 34.7968V26.6673L33.2069 28.453C33.0188 28.5124 32.8219 28.5398 32.6251 28.5398ZM41.9257 23.4154L39.6727 18.7204C39.5371 18.4372 39.244 18.2728 38.9422 18.3139L28.001 19.7708L32.0126 26.7175C32.1788 27.0052 32.5113 27.1422 32.8219 27.0509L41.4795 24.4704C41.9126 24.338 42.1226 23.8356 41.9257 23.4154ZM16.3292 18.7204L14.0762 23.4154C13.875 23.8356 14.0893 24.338 14.5181 24.4659L23.1756 27.0463C23.4863 27.1377 23.8187 27.0007 23.985 26.7129L28.001 19.7708L17.0554 18.3139C16.7536 18.2773 16.4648 18.4372 16.3292 18.7204Z" fill="white"/>
</svg>
