<svg width="16" height="16" viewBox="0 0 16 16" fill="none" xmlns="http://www.w3.org/2000/svg">
<g clip-path="url(#clip0)">
<path d="M15.5599 4.4417L14.1192 5.88232C13.9724 6.0292 13.7349 6.0292 13.588 5.88232L10.1192 2.41357C9.97235 2.2667 9.97235 2.0292 10.1192 1.88232L11.5599 0.441699C12.1442 -0.142676 13.0942 -0.142676 13.6817 0.441699L15.5599 2.31982C16.1474 2.9042 16.1474 3.8542 15.5599 4.4417ZM8.88173 3.11982L0.67548 11.3261L0.0129802 15.123C-0.0776448 15.6355 0.36923 16.0792 0.88173 15.9917L4.6786 15.3261L12.8849 7.11983C13.0317 6.97295 13.0317 6.73545 12.8849 6.58858L9.4161 3.11982C9.2661 2.97295 9.0286 2.97295 8.88173 3.11982V3.11982ZM3.8786 10.6229C3.70673 10.4511 3.70673 10.1761 3.8786 10.0042L8.6911 5.1917C8.86298 5.01983 9.13798 5.01983 9.30985 5.1917C9.48173 5.36358 9.48173 5.63857 9.30985 5.81045L4.49735 10.6229C4.32548 10.7948 4.05048 10.7948 3.8786 10.6229V10.6229ZM2.75048 13.2511H4.25048V14.3855L2.23485 14.7386L1.26298 13.7667L1.6161 11.7511H2.75048V13.2511Z" fill="#F0AD4E"/>
</g>
<defs>
<clipPath id="clip0">
<rect width="16" height="16" fill="white"/>
</clipPath>
</defs>
</svg>
