<svg width="16" height="16" viewBox="0 0 16 16" fill="none" xmlns="http://www.w3.org/2000/svg">
<path d="M10.5994 7.99996L14.4983 4.10113C14.9767 3.62269 14.9767 2.84698 14.4983 2.36815L13.6318 1.50165C13.1533 1.02321 12.3776 1.02321 11.8988 1.50165L7.99996 5.40048L4.10113 1.50165C3.62269 1.02321 2.84698 1.02321 2.36815 1.50165L1.50165 2.36815C1.02321 2.84659 1.02321 3.6223 1.50165 4.10113L5.40048 7.99996L1.50165 11.8988C1.02321 12.3772 1.02321 13.153 1.50165 13.6318L2.36815 14.4983C2.84659 14.9767 3.62269 14.9767 4.10113 14.4983L7.99996 10.5994L11.8988 14.4983C12.3772 14.9767 13.1533 14.9767 13.6318 14.4983L14.4983 13.6318C14.9767 13.1533 14.9767 12.3776 14.4983 11.8988L10.5994 7.99996Z" fill="#EC6A5E"/>
</svg>
