<svg width="30" height="27" viewBox="0 0 30 27" fill="none" xmlns="http://www.w3.org/2000/svg">
<path d="M29.6624 23.2038C30.6237 24.891 29.417 27 27.4969 27H2.50283C0.579025 27 -0.62212 24.8877 0.337359 23.2038L12.8345 1.26483C13.7964 -0.42314 16.2054 -0.420082 17.1655 1.26483L29.6624 23.2038ZM15 18.668C13.6768 18.668 12.6042 19.754 12.6042 21.0938C12.6042 22.4335 13.6768 23.5195 15 23.5195C16.3232 23.5195 17.3958 22.4335 17.3958 21.0938C17.3958 19.754 16.3232 18.668 15 18.668ZM12.7254 9.94855L13.1117 17.1204C13.1298 17.456 13.4039 17.7188 13.7358 17.7188H16.2642C16.5962 17.7188 16.8702 17.456 16.8883 17.1204L17.2746 9.94855C17.2942 9.58605 17.0091 9.28125 16.6506 9.28125H13.3494C12.9908 9.28125 12.7058 9.58605 12.7254 9.94855Z" fill="#EC6A5E"/>
</svg>
