<svg width="56" height="56" viewBox="0 0 56 56" fill="none" xmlns="http://www.w3.org/2000/svg">
<circle cx="28" cy="28" r="28" fill="#FFBE2E"/>
<g clip-path="url(#clip0)">
<path d="M41 23.9376C41 28.8736 36.9985 32.875 32.0625 32.875C31.4927 32.875 30.9357 32.8211 30.3955 32.7192L29.1761 34.091C29.0618 34.2196 28.9215 34.3226 28.7645 34.3931C28.6075 34.4636 28.4373 34.5 28.2652 34.5H26.375V36.5312C26.375 37.2044 25.8294 37.75 25.1562 37.75H23.125V39.7812C23.125 40.4544 22.5794 41 21.9062 41H16.2188C15.5456 41 15 40.4544 15 39.7812V35.8173C15 35.4941 15.1284 35.1841 15.3569 34.9555L23.5734 26.739C23.2828 25.8577 23.125 24.9161 23.125 23.9375C23.125 19.0015 27.1264 15.0001 32.0624 15C37.0131 14.9999 41 18.9869 41 23.9376ZM32.0625 21.5C32.0625 22.8462 33.1538 23.9375 34.5 23.9375C35.8462 23.9375 36.9375 22.8462 36.9375 21.5C36.9375 20.1538 35.8462 19.0625 34.5 19.0625C33.1538 19.0625 32.0625 20.1538 32.0625 21.5Z" fill="white"/>
</g>
<defs>
<clipPath id="clip0">
<rect width="26" height="26" fill="white" transform="translate(15 15)"/>
</clipPath>
</defs>
</svg>
