<svg width="56" height="56" viewBox="0 0 56 56" fill="none" xmlns="http://www.w3.org/2000/svg">
<circle cx="28" cy="28" r="28" fill="#FFBE2E"/>
<g clip-path="url(#clip0)">
<path d="M38.6065 39.3654H37.6059V16.0761C37.6059 15.3991 37.0683 14.8503 36.4052 14.8503H19.5948C18.9317 14.8503 18.3941 15.3991 18.3941 16.0761V39.3654H17.3935C17.0619 39.3654 16.7931 39.6398 16.7931 39.9783V40.9998H39.2069V39.9783C39.2069 39.6398 38.9381 39.3654 38.6065 39.3654ZM23.197 18.7319C23.197 18.3934 23.4658 18.119 23.7974 18.119H25.7986C26.1302 18.119 26.399 18.3934 26.399 18.7319V20.7748C26.399 21.1133 26.1302 21.3877 25.7986 21.3877H23.7974C23.4658 21.3877 23.197 21.1133 23.197 20.7748V18.7319ZM23.197 23.6349C23.197 23.2965 23.4658 23.022 23.7974 23.022H25.7986C26.1302 23.022 26.399 23.2965 26.399 23.6349V25.6778C26.399 26.0163 26.1302 26.2907 25.7986 26.2907H23.7974C23.4658 26.2907 23.197 26.0163 23.197 25.6778V23.6349ZM25.7986 31.1937H23.7974C23.4658 31.1937 23.197 30.9193 23.197 30.5809V28.5379C23.197 28.1995 23.4658 27.9251 23.7974 27.9251H25.7986C26.1302 27.9251 26.399 28.1995 26.399 28.5379V30.5809C26.399 30.9193 26.1302 31.1937 25.7986 31.1937ZM29.601 39.3654H26.399V35.0753C26.399 34.7368 26.6678 34.4624 26.9994 34.4624H29.0006C29.3322 34.4624 29.601 34.7368 29.601 35.0753V39.3654ZM32.8029 30.5809C32.8029 30.9193 32.5341 31.1937 32.2026 31.1937H30.2013C29.8698 31.1937 29.601 30.9193 29.601 30.5809V28.5379C29.601 28.1995 29.8698 27.9251 30.2013 27.9251H32.2026C32.5341 27.9251 32.8029 28.1995 32.8029 28.5379V30.5809ZM32.8029 25.6778C32.8029 26.0163 32.5341 26.2907 32.2026 26.2907H30.2013C29.8698 26.2907 29.601 26.0163 29.601 25.6778V23.6349C29.601 23.2965 29.8698 23.022 30.2013 23.022H32.2026C32.5341 23.022 32.8029 23.2965 32.8029 23.6349V25.6778ZM32.8029 20.7748C32.8029 21.1133 32.5341 21.3877 32.2026 21.3877H30.2013C29.8698 21.3877 29.601 21.1133 29.601 20.7748V18.7319C29.601 18.3934 29.8698 18.119 30.2013 18.119H32.2026C32.5341 18.119 32.8029 18.3934 32.8029 18.7319V20.7748Z" fill="white"/>
</g>
<defs>
<clipPath id="clip0">
<rect width="26" height="26" fill="white" transform="translate(15 15)"/>
</clipPath>
</defs>
</svg>
