<svg width="56" height="56" viewBox="0 0 56 56" fill="none" xmlns="http://www.w3.org/2000/svg">
<circle cx="28" cy="28" r="28" fill="#FFBE2E"/>
<path d="M28 28C31.5372 28 34.4039 25.0902 34.4039 21.5C34.4039 17.9098 31.5372 15 28 15C24.4628 15 21.596 17.9098 21.596 21.5C21.596 25.0902 24.4628 28 28 28ZM32.7929 29.6555L30.4015 39.375L28.8005 32.4688L30.4015 29.625H25.5985L27.1995 32.4688L25.5985 39.375L23.207 29.6555C19.6398 29.8281 16.7931 32.7887 16.7931 36.45V38.5625C16.7931 39.9082 17.8688 41 19.1946 41H36.8054C38.1312 41 39.2069 39.9082 39.2069 38.5625V36.45C39.2069 32.7887 36.3601 29.8281 32.7929 29.6555Z" fill="white"/>
</svg>
