<svg width="56" height="56" viewBox="0 0 56 56" fill="none" xmlns="http://www.w3.org/2000/svg">
<circle cx="28" cy="28" r="28" fill="#FFBE2E"/>
<path d="M28.1169 15.4062C21.0989 15.4062 15.4097 21.0446 15.4097 28C15.4097 34.9554 21.0989 40.5938 28.1169 40.5938C35.1349 40.5938 40.8241 34.9554 40.8241 28C40.8241 21.0446 35.1349 15.4062 28.1169 15.4062ZM28.1169 17.8438C33.7804 17.8438 38.3646 22.3862 38.3646 28C38.3646 33.613 33.7813 38.1562 28.1169 38.1562C22.4534 38.1562 17.8691 33.6138 17.8691 28C17.8691 22.387 22.4525 17.8438 28.1169 17.8438ZM35.3008 24.4589L34.146 23.3052C33.9069 23.0663 33.5176 23.0647 33.2765 23.3018L26.0338 30.4221L22.9701 27.3612C22.731 27.1222 22.3417 27.1207 22.1006 27.3577L20.9365 28.5021C20.6955 28.7391 20.6939 29.1249 20.9331 29.3639L25.5846 34.0112C25.8237 34.2501 26.213 34.2517 26.4541 34.0146L35.2973 25.3207C35.5383 25.0836 35.5399 24.6978 35.3008 24.4589Z" fill="white"/>
</svg>
