<svg width="56" height="56" viewBox="0 0 56 56" fill="none" xmlns="http://www.w3.org/2000/svg">
<circle cx="28" cy="28" r="28" fill="#FFBE2E"/>
<path d="M39.375 15.7231H16.625C15.1752 15.7231 14 16.8983 14 18.3481V37.5981C14 39.0478 15.1752 40.2231 16.625 40.2231H39.375C40.8248 40.2231 42 39.0478 42 37.5981V18.3481C42 16.8983 40.8248 15.7231 39.375 15.7231ZM39.0469 37.5981H16.9531C16.8661 37.5981 16.7826 37.5635 16.7211 37.502C16.6596 37.4404 16.625 37.357 16.625 37.27V18.6762C16.625 18.5892 16.6596 18.5057 16.7211 18.4442C16.7826 18.3827 16.8661 18.3481 16.9531 18.3481H39.0469C39.1339 18.3481 39.2174 18.3827 39.2789 18.4442C39.3404 18.5057 39.375 18.5892 39.375 18.6762V37.27C39.375 37.357 39.3404 37.4404 39.2789 37.502C39.2174 37.5635 39.1339 37.5981 39.0469 37.5981ZM36.75 32.5668V33.8793C36.75 34.2417 36.4562 34.5356 36.0938 34.5356H25.1562C24.7938 34.5356 24.5 34.2417 24.5 33.8793V32.5668C24.5 32.2044 24.7938 31.9106 25.1562 31.9106H36.0938C36.4562 31.9106 36.75 32.2044 36.75 32.5668ZM36.75 27.3168V28.6293C36.75 28.9917 36.4562 29.2856 36.0938 29.2856H25.1562C24.7938 29.2856 24.5 28.9917 24.5 28.6293V27.3168C24.5 26.9544 24.7938 26.6606 25.1562 26.6606H36.0938C36.4562 26.6606 36.75 26.9544 36.75 27.3168ZM36.75 22.0668V23.3793C36.75 23.7417 36.4562 24.0356 36.0938 24.0356H25.1562C24.7938 24.0356 24.5 23.7417 24.5 23.3793V22.0668C24.5 21.7044 24.7938 21.4106 25.1562 21.4106H36.0938C36.4562 21.4106 36.75 21.7044 36.75 22.0668ZM22.9688 22.7231C22.9688 23.8104 22.0873 24.6918 21 24.6918C19.9127 24.6918 19.0312 23.8104 19.0312 22.7231C19.0312 21.6358 19.9127 20.7543 21 20.7543C22.0873 20.7543 22.9688 21.6358 22.9688 22.7231ZM22.9688 27.9731C22.9688 29.0604 22.0873 29.9418 21 29.9418C19.9127 29.9418 19.0312 29.0604 19.0312 27.9731C19.0312 26.8858 19.9127 26.0043 21 26.0043C22.0873 26.0043 22.9688 26.8858 22.9688 27.9731ZM22.9688 33.2231C22.9688 34.3104 22.0873 35.1918 21 35.1918C19.9127 35.1918 19.0312 34.3104 19.0312 33.2231C19.0312 32.1358 19.9127 31.2543 21 31.2543C22.0873 31.2543 22.9688 32.1358 22.9688 33.2231Z" fill="white"/>
</svg>
