<svg width="56" height="56" viewBox="0 0 56 56" fill="none" xmlns="http://www.w3.org/2000/svg">
<circle cx="28" cy="28" r="28" fill="#FFBE2E"/>
<path d="M15.75 38.5C15.75 39.468 16.532 40.25 17.5 40.25H26.25V31.5H15.75V38.5ZM29.75 40.25H38.5C39.468 40.25 40.25 39.468 40.25 38.5V31.5H29.75V40.25ZM40.25 22.75H37.9477C38.2867 22.0883 38.5 21.3555 38.5 20.5625C38.5 17.9102 36.3398 15.75 33.6875 15.75C31.4125 15.75 29.9414 16.9148 28.0547 19.4852C26.168 16.9148 24.6969 15.75 22.4219 15.75C19.7695 15.75 17.6094 17.9102 17.6094 20.5625C17.6094 21.3555 17.8172 22.0883 18.1617 22.75H15.75C14.782 22.75 14 23.532 14 24.5V28.875C14 29.3562 14.3937 29.75 14.875 29.75H41.125C41.6063 29.75 42 29.3562 42 28.875V24.5C42 23.532 41.218 22.75 40.25 22.75ZM22.4164 22.75C21.2078 22.75 20.2289 21.7711 20.2289 20.5625C20.2289 19.3539 21.2078 18.375 22.4164 18.375C23.5047 18.375 24.3086 18.5555 27.125 22.75H22.4164ZM33.6875 22.75H28.9789C31.7898 18.5664 32.5719 18.375 33.6875 18.375C34.8961 18.375 35.875 19.3539 35.875 20.5625C35.875 21.7711 34.8961 22.75 33.6875 22.75Z" fill="white"/>
</svg>
