<svg width="221" height="37" viewBox="0 0 221 37" fill="none" xmlns="http://www.w3.org/2000/svg">
  <path d="M91.1842 18.386C89.3922 18.386 87.8082 18.034 86.4322 17.33C85.0562 16.61 83.9922 15.594 83.2402 14.282C82.4882 12.97 82.1122 11.426 82.1122 9.64997C82.1122 7.87397 82.4882 6.32997 83.2402 5.01797C83.9922 3.68997 85.0562 2.67397 86.4322 1.96997C87.8082 1.24997 89.3922 0.889969 91.1842 0.889969C92.4002 0.889969 93.4722 1.01797 94.4002 1.27397C95.3442 1.51397 96.2082 1.89797 96.9922 2.42597V5.90597C96.2882 5.32997 95.4802 4.91397 94.5682 4.65797C93.6722 4.38597 92.6482 4.24997 91.4962 4.24997C90.4242 4.24997 89.4562 4.47397 88.5922 4.92197C87.7442 5.35397 87.0722 5.97797 86.5762 6.79397C86.0802 7.60997 85.8322 8.56197 85.8322 9.64997C85.8322 10.754 86.0562 11.722 86.5042 12.554C86.9682 13.37 87.6162 14.002 88.4482 14.45C89.2802 14.898 90.2402 15.122 91.3282 15.122C92.3202 15.122 93.1842 14.946 93.9202 14.594V11.354H91.2082V8.66597H97.4482V16.754C95.8642 17.842 93.7762 18.386 91.1842 18.386ZM108.947 18.386C107.267 18.386 105.739 18.018 104.363 17.282C103.003 16.546 101.931 15.522 101.147 14.21C100.363 12.882 99.9707 11.362 99.9707 9.64997C99.9707 7.93797 100.363 6.41797 101.147 5.08997C101.931 3.76197 103.003 2.72997 104.363 1.99397C105.739 1.25797 107.267 0.889969 108.947 0.889969C110.627 0.889969 112.139 1.25797 113.483 1.99397C114.843 2.72997 115.915 3.76197 116.699 5.08997C117.483 6.41797 117.875 7.93797 117.875 9.64997C117.875 11.362 117.483 12.882 116.699 14.21C115.915 15.522 114.843 16.546 113.483 17.282C112.139 18.018 110.627 18.386 108.947 18.386ZM108.947 15.026C109.907 15.026 110.779 14.81 111.563 14.378C112.363 13.93 112.995 13.306 113.459 12.506C113.923 11.69 114.155 10.738 114.155 9.64997C114.155 8.57797 113.923 7.64197 113.459 6.84197C113.011 6.02597 112.387 5.40197 111.587 4.96997C110.803 4.52197 109.923 4.29797 108.947 4.29797C107.955 4.29797 107.059 4.52197 106.259 4.96997C105.475 5.40197 104.851 6.02597 104.387 6.84197C103.923 7.64197 103.691 8.57797 103.691 9.64997C103.691 10.738 103.923 11.69 104.387 12.506C104.851 13.306 105.483 13.93 106.283 14.378C107.083 14.81 107.971 15.026 108.947 15.026ZM120.84 1.24997H129.072C130.656 1.24997 131.896 1.64197 132.792 2.42597C133.688 3.20997 134.136 4.34597 134.136 5.83397C134.136 6.58597 133.96 7.27397 133.608 7.89797C133.256 8.50597 132.776 8.97797 132.168 9.31397C133 9.61797 133.624 10.082 134.04 10.706C134.456 11.314 134.664 12.114 134.664 13.106C134.664 14.114 134.432 14.994 133.968 15.746C133.52 16.482 132.896 17.05 132.096 17.45C131.312 17.834 130.44 18.026 129.48 18.026H120.84V1.24997ZM128.376 8.06597C129.016 8.06597 129.52 7.90597 129.888 7.58597C130.256 7.26597 130.44 6.75397 130.44 6.04997C130.44 5.28197 130.256 4.75397 129.888 4.46597C129.536 4.17797 128.992 4.03397 128.256 4.03397H124.488V8.06597H128.376ZM128.592 15.242C129.376 15.242 129.968 15.09 130.368 14.786C130.784 14.466 130.992 13.914 130.992 13.13C130.992 12.33 130.776 11.754 130.344 11.402C129.928 11.05 129.304 10.874 128.472 10.874H124.488V15.242H128.592ZM137.668 1.24997H149.308V4.29797H141.316V8.18597H147.196V11.114H141.316V14.978H149.308V18.026H137.668V1.24997ZM157.088 11.642L150.944 1.24997H154.832L158.888 8.23397L163.088 1.24997H166.952L160.664 11.642V18.026H157.088V11.642ZM176.419 18.386C174.739 18.386 173.211 18.018 171.835 17.282C170.475 16.546 169.403 15.522 168.619 14.21C167.835 12.882 167.443 11.362 167.443 9.64997C167.443 7.93797 167.835 6.41797 168.619 5.08997C169.403 3.76197 170.475 2.72997 171.835 1.99397C173.211 1.25797 174.739 0.889969 176.419 0.889969C178.099 0.889969 179.611 1.25797 180.955 1.99397C182.315 2.72997 183.387 3.76197 184.171 5.08997C184.955 6.41797 185.347 7.93797 185.347 9.64997C185.347 11.362 184.955 12.882 184.171 14.21C183.387 15.522 182.315 16.546 180.955 17.282C179.611 18.018 178.099 18.386 176.419 18.386ZM176.419 15.026C177.379 15.026 178.251 14.81 179.035 14.378C179.835 13.93 180.467 13.306 180.931 12.506C181.395 11.69 181.627 10.738 181.627 9.64997C181.627 8.57797 181.395 7.64197 180.931 6.84197C180.483 6.02597 179.859 5.40197 179.059 4.96997C178.275 4.52197 177.395 4.29797 176.419 4.29797C175.427 4.29797 174.531 4.52197 173.731 4.96997C172.947 5.40197 172.323 6.02597 171.859 6.84197C171.395 7.64197 171.163 8.57797 171.163 9.64997C171.163 10.738 171.395 11.69 171.859 12.506C172.323 13.306 172.955 13.93 173.755 14.378C174.555 14.81 175.443 15.026 176.419 15.026ZM188.313 1.24997H191.865L198.873 12.098V1.24997H202.521V18.026H198.993L191.961 7.17797V18.026H188.313V1.24997ZM205.984 1.24997H211.816C213.64 1.24997 215.232 1.58597 216.592 2.25797C217.952 2.92997 219 3.88997 219.736 5.13797C220.472 6.38597 220.84 7.85797 220.84 9.55397C220.84 12.338 220.024 14.45 218.392 15.89C216.776 17.314 214.52 18.026 211.624 18.026H205.984V1.24997ZM211.816 14.978C213.528 14.978 214.84 14.498 215.752 13.538C216.664 12.578 217.12 11.25 217.12 9.55397C217.12 8.54597 216.92 7.64197 216.52 6.84197C216.12 6.04197 215.536 5.41797 214.768 4.96997C214 4.52197 213.096 4.29797 212.056 4.29797H209.632V14.978H211.816Z" fill="#16110D"/>
  <path d="M15.4608 13.8807L30.9215 37H0L15.4608 13.8807Z" fill="#16110D"/>
  <path d="M68.0001 37H53.1778L35.8472 11.1046L43.2811 0L68.0001 37Z" fill="#FFBE2E"/>
  <path d="M49.4835 37H34.6156L17.3306 11.1046L24.7189 0L49.4835 37Z" fill="#16110D"/>
  <path opacity="0.9" d="M82.6975 27.6273H89.0025V29.2913H84.6735V31.4103H87.8585V32.9313H84.6735V36.7143H82.6975V27.6273ZM94.0443 36.9093C92.7183 36.9093 91.7173 36.5626 91.0413 35.8693C90.3653 35.1673 90.0273 34.227 90.0273 33.0483V27.6273H92.0033V33.0743C92.0033 33.733 92.1853 34.2356 92.5493 34.5823C92.9133 34.929 93.4116 35.1023 94.0443 35.1023C94.6683 35.1023 95.1579 34.929 95.5133 34.5823C95.8773 34.2356 96.0593 33.733 96.0593 33.0743V27.6273H98.0353V33.0483C98.0353 34.227 97.7016 35.1673 97.0343 35.8693C96.3669 36.5626 95.3703 36.9093 94.0443 36.9093ZM101.765 29.2783H99.1134V27.6273H106.393V29.2783H103.741V36.7143H101.765V29.2783ZM111.474 36.9093C110.148 36.9093 109.147 36.5626 108.471 35.8693C107.795 35.1673 107.457 34.227 107.457 33.0483V27.6273H109.433V33.0743C109.433 33.733 109.615 34.2356 109.979 34.5823C110.343 34.929 110.842 35.1023 111.474 35.1023C112.098 35.1023 112.588 34.929 112.943 34.5823C113.307 34.2356 113.489 33.733 113.489 33.0743V27.6273H115.465V33.0483C115.465 34.227 115.132 35.1673 114.464 35.8693C113.797 36.5626 112.8 36.9093 111.474 36.9093ZM117.025 27.6273H120.964C121.995 27.6273 122.797 27.8873 123.369 28.4073C123.949 28.9186 124.24 29.6596 124.24 30.6303C124.24 31.3063 124.084 31.8826 123.772 32.3593C123.46 32.8273 123.018 33.1696 122.446 33.3863L124.175 36.7143H122.147L120.548 33.6333H119.001V36.7143H117.025V27.6273ZM120.613 31.9823C121.115 31.9823 121.51 31.874 121.796 31.6573C122.09 31.4406 122.238 31.0983 122.238 30.6303C122.238 30.1363 122.095 29.7896 121.809 29.5903C121.523 29.3823 121.124 29.2783 120.613 29.2783H119.001V31.9823H120.613ZM125.6 27.6273H131.905V29.2783H127.576V31.3843H130.761V32.9703H127.576V35.0633H131.905V36.7143H125.6V27.6273ZM137.927 27.6273H139.903V36.7143H137.927V27.6273ZM144.256 36.9093C143.701 36.9093 143.151 36.8573 142.605 36.7533C142.059 36.6493 141.612 36.5106 141.266 36.3373V34.5953C141.725 34.8206 142.202 34.9896 142.696 35.1023C143.19 35.215 143.662 35.2713 144.113 35.2713C144.615 35.2713 144.997 35.1846 145.257 35.0113C145.517 34.838 145.647 34.5953 145.647 34.2833C145.647 34.058 145.582 33.8673 145.452 33.7113C145.322 33.5553 145.131 33.4166 144.88 33.2953C144.637 33.1653 144.26 32.9963 143.749 32.7883C142.899 32.4416 142.284 32.056 141.903 31.6313C141.521 31.198 141.331 30.665 141.331 30.0323C141.331 29.521 141.469 29.0703 141.747 28.6803C142.024 28.2816 142.414 27.974 142.917 27.7573C143.419 27.5406 144 27.4323 144.659 27.4323C145.196 27.4323 145.673 27.4756 146.089 27.5623C146.505 27.649 146.912 27.7833 147.311 27.9653V29.6553C146.548 29.274 145.785 29.0833 145.023 29.0833C144.537 29.0833 144.156 29.17 143.879 29.3433C143.601 29.508 143.463 29.7463 143.463 30.0583C143.463 30.2836 143.528 30.47 143.658 30.6173C143.788 30.7646 143.97 30.8946 144.204 31.0073C144.438 31.12 144.819 31.2846 145.348 31.5013C145.963 31.7613 146.444 32.0126 146.791 32.2553C147.137 32.4893 147.393 32.771 147.558 33.1003C147.722 33.421 147.805 33.8196 147.805 34.2963C147.805 35.1196 147.506 35.761 146.908 36.2203C146.318 36.6796 145.434 36.9093 144.256 36.9093ZM153.979 27.6273H155.955V31.2673H159.92V27.6273H161.896V36.7143H159.92V32.9053H155.955V36.7143H153.979V27.6273ZM163.507 27.6273H169.812V29.2783H165.483V31.3843H168.668V32.9703H165.483V35.0633H169.812V36.7143H163.507V27.6273ZM171.028 27.6273H174.967C175.999 27.6273 176.8 27.8873 177.372 28.4073C177.953 28.9186 178.243 29.6596 178.243 30.6303C178.243 31.3063 178.087 31.8826 177.775 32.3593C177.463 32.8273 177.021 33.1696 176.449 33.3863L178.178 36.7143H176.15L174.551 33.6333H173.004V36.7143H171.028V27.6273ZM174.616 31.9823C175.119 31.9823 175.513 31.874 175.799 31.6573C176.094 31.4406 176.241 31.0983 176.241 30.6303C176.241 30.1363 176.098 29.7896 175.812 29.5903C175.526 29.3823 175.128 29.2783 174.616 29.2783H173.004V31.9823H174.616ZM179.604 27.6273H185.909V29.2783H181.58V31.3843H184.765V32.9703H181.58V35.0633H185.909V36.7143H179.604V27.6273Z" fill="#FFBE2E"/>
</svg>
