<svg width="300" height="282" viewBox="0 0 300 282" fill="none" xmlns="http://www.w3.org/2000/svg">
<path d="M3.41321 197.595C4.3234 197.897 4.3234 198.803 3.41321 199.105C2.50302 199.407 1.28944 199.407 0.682642 199.105C-0.227547 198.803 -0.227547 197.897 0.682642 197.595C1.28944 196.991 2.50302 196.991 3.41321 197.595Z" fill="#16110D"/>
<path d="M10.6945 193.367C11.6047 193.669 11.6047 194.575 10.6945 194.877C9.78427 195.179 8.57069 195.179 7.96389 194.877C7.0537 194.575 7.0537 193.669 7.96389 193.367C8.57069 193.065 9.78427 193.065 10.6945 193.367Z" fill="#16110D"/>
<path d="M119.007 271.28C119.917 271.582 119.917 272.488 119.007 272.79C118.097 273.092 116.883 273.092 116.277 272.79C115.366 272.488 115.366 271.582 116.277 271.28C116.883 270.978 118.097 270.978 119.007 271.28Z" fill="#16110D"/>
<path d="M125.985 267.354C126.896 267.656 126.896 268.562 125.985 268.864C125.075 269.166 123.862 269.166 123.255 268.864C122.345 268.562 122.345 267.656 123.255 267.354C124.165 266.75 125.379 266.75 125.985 267.354Z" fill="#16110D"/>
<path d="M133.266 263.127C134.177 263.429 134.177 264.335 133.266 264.637C132.356 264.939 131.143 264.939 130.536 264.637C129.626 264.335 129.626 263.429 130.536 263.127C131.143 262.825 132.66 262.825 133.266 263.127Z" fill="#16110D"/>
<path d="M140.549 258.899C141.459 259.201 141.459 260.107 140.549 260.409C139.639 260.711 138.425 260.711 137.818 260.409C136.908 260.107 136.908 259.201 137.818 258.899C138.425 258.597 139.639 258.597 140.549 258.899Z" fill="#16110D"/>
<path d="M147.526 254.973C148.436 255.275 148.436 256.181 147.526 256.483C146.616 256.785 145.402 256.785 144.796 256.483C143.885 256.181 143.885 255.275 144.796 254.973C145.706 254.369 146.919 254.369 147.526 254.973Z" fill="#16110D"/>
<path d="M153.594 252.859C154.6 252.859 155.415 252.318 155.415 251.651C155.415 250.984 154.6 250.443 153.594 250.443C152.589 250.443 151.774 250.984 151.774 251.651C151.774 252.318 152.589 252.859 153.594 252.859Z" fill="#16110D"/>
<path d="M162.089 246.517C163 246.819 163 247.725 162.089 248.027C161.179 248.329 159.966 248.329 159.359 248.027C158.449 247.725 158.449 246.819 159.359 246.517C159.966 246.215 161.179 246.215 162.089 246.517Z" fill="#16110D"/>
<path d="M167.854 244.403C168.859 244.403 169.674 243.863 169.674 243.195C169.674 242.528 168.859 241.987 167.854 241.987C166.849 241.987 166.034 242.528 166.034 243.195C166.034 243.863 166.849 244.403 167.854 244.403Z" fill="#16110D"/>
<path d="M176.349 238.364C177.259 238.666 177.259 239.572 176.349 239.874C175.439 240.176 174.225 240.176 173.619 239.874C172.708 239.572 172.708 238.666 173.619 238.364C174.529 237.76 175.742 237.76 176.349 238.364Z" fill="#16110D"/>
<path d="M183.631 234.136C184.541 234.438 184.541 235.344 183.631 235.646C182.721 235.948 181.507 235.948 180.9 235.646C179.99 235.344 179.99 234.438 180.9 234.136C181.507 233.834 183.024 233.834 183.631 234.136Z" fill="#16110D"/>
<path d="M190.912 229.908C191.822 230.21 191.822 231.116 190.912 231.418C190.002 231.72 188.788 231.72 188.182 231.418C187.271 231.116 187.271 230.21 188.182 229.908C188.788 229.606 190.002 229.606 190.912 229.908Z" fill="#16110D"/>
<path d="M110.209 269.166C111.214 269.166 112.029 268.626 112.029 267.958C112.029 267.291 111.214 266.75 110.209 266.75C109.203 266.75 108.388 267.291 108.388 267.958C108.388 268.626 109.203 269.166 110.209 269.166Z" fill="#16110D"/>
<path d="M119.007 263.127C119.917 263.429 119.917 264.335 119.007 264.637C118.097 264.939 116.883 264.939 116.277 264.637C115.366 264.335 115.366 263.429 116.277 263.127C116.883 262.825 118.097 262.825 119.007 263.127Z" fill="#16110D"/>
<path d="M125.985 258.899C126.896 259.201 126.896 260.107 125.985 260.409C125.075 260.711 123.862 260.711 123.255 260.409C122.345 260.107 122.345 259.201 123.255 258.899C124.165 258.597 125.379 258.597 125.985 258.899Z" fill="#16110D"/>
<path d="M133.266 254.973C134.177 255.275 134.177 256.181 133.266 256.483C132.356 256.785 131.143 256.785 130.536 256.483C129.626 256.181 129.626 255.275 130.536 254.973C131.143 254.369 132.66 254.369 133.266 254.973Z" fill="#16110D"/>
<path d="M140.549 250.745C141.459 251.047 141.459 251.953 140.549 252.255C139.639 252.557 138.425 252.557 137.818 252.255C136.908 251.953 136.908 251.047 137.818 250.745C138.425 250.141 139.639 250.141 140.549 250.745Z" fill="#16110D"/>
<path d="M147.526 246.517C148.436 246.819 148.436 247.725 147.526 248.027C146.616 248.329 145.402 248.329 144.796 248.027C143.885 247.725 143.885 246.819 144.796 246.517C145.706 246.215 146.919 246.215 147.526 246.517Z" fill="#16110D"/>
<path d="M154.808 242.591C155.718 242.893 155.718 243.799 154.808 244.101C153.898 244.403 152.684 244.403 152.078 244.101C151.167 243.799 151.167 242.893 152.078 242.591C152.988 241.987 154.201 241.987 154.808 242.591Z" fill="#16110D"/>
<path d="M162.089 238.364C163 238.666 163 239.572 162.089 239.874C161.179 240.176 159.966 240.176 159.359 239.874C158.449 239.572 158.449 238.666 159.359 238.364C159.966 237.76 161.179 237.76 162.089 238.364Z" fill="#16110D"/>
<path d="M167.854 236.25C168.859 236.25 169.674 235.709 169.674 235.042C169.674 234.375 168.859 233.834 167.854 233.834C166.849 233.834 166.034 234.375 166.034 235.042C166.034 235.709 166.849 236.25 167.854 236.25Z" fill="#16110D"/>
<path d="M175.136 232.022C176.141 232.022 176.956 231.481 176.956 230.814C176.956 230.147 176.141 229.606 175.136 229.606C174.13 229.606 173.315 230.147 173.315 230.814C173.315 231.481 174.13 232.022 175.136 232.022Z" fill="#16110D"/>
<path d="M183.631 225.982C184.541 226.284 184.541 227.19 183.631 227.492C182.721 227.794 181.507 227.794 180.9 227.492C179.99 227.19 179.99 226.284 180.9 225.982C181.507 225.378 183.024 225.378 183.631 225.982Z" fill="#16110D"/>
<path d="M104.444 263.127C105.354 263.429 105.354 264.335 104.444 264.637C103.534 264.939 102.32 264.939 101.713 264.637C100.803 264.335 100.803 263.429 101.713 263.127C102.624 262.825 103.837 262.825 104.444 263.127Z" fill="#16110D"/>
<path d="M111.726 258.899C112.636 259.201 112.636 260.107 111.726 260.409C110.816 260.711 109.602 260.711 108.995 260.409C108.085 260.107 108.085 259.201 108.995 258.899C109.602 258.597 110.816 258.597 111.726 258.899Z" fill="#16110D"/>
<path d="M119.007 254.973C119.917 255.275 119.917 256.181 119.007 256.483C118.097 256.785 116.883 256.785 116.277 256.483C115.366 256.181 115.366 255.275 116.277 254.973C116.883 254.369 118.097 254.369 119.007 254.973Z" fill="#16110D"/>
<path d="M125.985 250.745C126.896 251.047 126.896 251.953 125.985 252.255C125.075 252.557 123.862 252.557 123.255 252.255C122.345 251.953 122.345 251.047 123.255 250.745C124.165 250.141 125.379 250.141 125.985 250.745Z" fill="#16110D"/>
<path d="M133.266 246.517C134.177 246.819 134.177 247.725 133.266 248.027C132.356 248.329 131.143 248.329 130.536 248.027C129.626 247.725 129.626 246.819 130.536 246.517C131.143 246.215 132.66 246.215 133.266 246.517Z" fill="#16110D"/>
<path d="M140.549 242.591C141.459 242.893 141.459 243.799 140.549 244.101C139.639 244.403 138.425 244.403 137.818 244.101C136.908 243.799 136.908 242.893 137.818 242.591C138.425 241.987 139.639 241.987 140.549 242.591Z" fill="#16110D"/>
<path d="M147.526 238.364C148.436 238.666 148.436 239.572 147.526 239.874C146.616 240.176 145.402 240.176 144.796 239.874C143.885 239.572 143.885 238.666 144.796 238.364C145.706 237.76 146.919 237.76 147.526 238.364Z" fill="#16110D"/>
<path d="M154.808 234.136C155.718 234.438 155.718 235.344 154.808 235.646C153.898 235.948 152.684 235.948 152.078 235.646C151.167 235.344 151.167 234.438 152.078 234.136C152.988 233.834 154.201 233.834 154.808 234.136Z" fill="#16110D"/>
<path d="M162.089 229.908C163 230.21 163 231.116 162.089 231.418C161.179 231.72 159.966 231.72 159.359 231.418C158.449 231.116 158.449 230.21 159.359 229.908C159.966 229.606 161.179 229.606 162.089 229.908Z" fill="#16110D"/>
<path d="M169.371 225.982C170.282 226.284 170.282 227.19 169.371 227.492C168.461 227.794 167.248 227.794 166.641 227.492C165.731 227.19 165.731 226.284 166.641 225.982C167.248 225.378 168.461 225.378 169.371 225.982Z" fill="#16110D"/>
<path d="M176.349 221.754C177.259 222.056 177.259 222.962 176.349 223.264C175.439 223.566 174.225 223.566 173.619 223.264C172.708 222.962 172.708 222.056 173.619 221.754C174.529 221.452 175.742 221.452 176.349 221.754Z" fill="#16110D"/>
<path d="M97.4662 258.899C98.3764 259.201 98.3764 260.107 97.4662 260.409C96.556 260.711 95.3424 260.711 94.7356 260.409C93.8254 260.107 93.8254 259.201 94.7356 258.899C95.3424 258.597 96.556 258.597 97.4662 258.899Z" fill="#16110D"/>
<path d="M104.444 254.973C105.354 255.275 105.354 256.181 104.444 256.483C103.534 256.785 102.32 256.785 101.713 256.483C100.803 256.181 100.803 255.275 101.713 254.973C102.624 254.369 103.837 254.369 104.444 254.973Z" fill="#16110D"/>
<path d="M111.726 250.745C112.636 251.047 112.636 251.953 111.726 252.255C110.816 252.557 109.602 252.557 108.995 252.255C108.085 251.953 108.085 251.047 108.995 250.745C109.602 250.141 110.816 250.141 111.726 250.745Z" fill="#16110D"/>
<path d="M119.007 246.517C119.917 246.819 119.917 247.725 119.007 248.027C118.097 248.329 116.883 248.329 116.277 248.027C115.366 247.725 115.366 246.819 116.277 246.517C116.883 246.215 118.097 246.215 119.007 246.517Z" fill="#16110D"/>
<path d="M125.985 242.591C126.896 242.893 126.896 243.799 125.985 244.101C125.075 244.403 123.862 244.403 123.255 244.101C122.345 243.799 122.345 242.893 123.255 242.591C124.165 241.987 125.379 241.987 125.985 242.591Z" fill="#16110D"/>
<path d="M133.266 238.364C134.177 238.666 134.177 239.572 133.266 239.874C132.356 240.176 131.143 240.176 130.536 239.874C129.626 239.572 129.626 238.666 130.536 238.364C131.143 237.76 132.66 237.76 133.266 238.364Z" fill="#16110D"/>
<path d="M140.549 234.136C141.459 234.438 141.459 235.344 140.549 235.646C139.639 235.948 138.425 235.948 137.818 235.646C136.908 235.344 136.908 234.438 137.818 234.136C138.425 233.834 139.639 233.834 140.549 234.136Z" fill="#16110D"/>
<path d="M147.526 229.908C148.436 230.21 148.436 231.116 147.526 231.418C146.616 231.72 145.402 231.72 144.796 231.418C143.885 231.116 143.885 230.21 144.796 229.908C145.706 229.606 146.919 229.606 147.526 229.908Z" fill="#16110D"/>
<path d="M154.808 225.982C155.718 226.284 155.718 227.19 154.808 227.492C153.898 227.794 152.684 227.794 152.078 227.492C151.167 227.19 151.167 226.284 152.078 225.982C152.988 225.378 154.201 225.378 154.808 225.982Z" fill="#16110D"/>
<path d="M162.089 221.754C163 222.056 163 222.962 162.089 223.264C161.179 223.566 159.966 223.566 159.359 223.264C158.449 222.962 158.449 222.056 159.359 221.754C159.966 221.452 161.179 221.452 162.089 221.754Z" fill="#16110D"/>
<path d="M167.854 219.64C168.859 219.64 169.674 219.1 169.674 218.432C169.674 217.765 168.859 217.225 167.854 217.225C166.849 217.225 166.034 217.765 166.034 218.432C166.034 219.1 166.849 219.64 167.854 219.64Z" fill="#16110D"/>
<path d="M90.1847 254.973C91.0949 255.275 91.0949 256.181 90.1847 256.483C89.2745 256.785 88.0609 256.785 87.4541 256.483C86.5439 256.181 86.5439 255.275 87.4541 254.973C88.0609 254.369 89.2745 254.369 90.1847 254.973Z" fill="#16110D"/>
<path d="M97.4662 250.745C98.3764 251.047 98.3764 251.953 97.4662 252.255C96.556 252.557 95.3424 252.557 94.7356 252.255C93.8254 251.953 93.8254 251.047 94.7356 250.745C95.3424 250.141 96.556 250.141 97.4662 250.745Z" fill="#16110D"/>
<path d="M104.444 246.517C105.354 246.819 105.354 247.725 104.444 248.027C103.534 248.329 102.32 248.329 101.713 248.027C100.803 247.725 100.803 246.819 101.713 246.517C102.624 246.215 103.837 246.215 104.444 246.517Z" fill="#16110D"/>
<path d="M111.726 242.591C112.636 242.893 112.636 243.799 111.726 244.101C110.816 244.403 109.602 244.403 108.995 244.101C108.085 243.799 108.085 242.893 108.995 242.591C109.602 241.987 110.816 241.987 111.726 242.591Z" fill="#16110D"/>
<path d="M119.007 238.364C119.917 238.666 119.917 239.572 119.007 239.874C118.097 240.176 116.883 240.176 116.277 239.874C115.366 239.572 115.366 238.666 116.277 238.364C117.187 238.062 118.097 237.76 119.007 238.364Z" fill="#16110D"/>
<path d="M125.985 234.136C126.896 234.438 126.896 235.344 125.985 235.646C125.075 235.948 123.862 235.948 123.255 235.646C122.345 235.344 122.345 234.438 123.255 234.136C124.165 233.834 125.379 233.834 125.985 234.136Z" fill="#16110D"/>
<path d="M133.266 229.908C134.177 230.21 134.177 231.116 133.266 231.418C132.356 231.72 131.143 231.72 130.536 231.418C129.626 231.116 129.626 230.21 130.536 229.908C131.143 229.606 132.66 229.606 133.266 229.908Z" fill="#16110D"/>
<path d="M140.549 225.982C141.459 226.284 141.459 227.19 140.549 227.492C139.639 227.794 138.425 227.794 137.818 227.492C136.908 227.19 136.908 226.284 137.818 225.982C138.425 225.378 139.639 225.378 140.549 225.982Z" fill="#16110D"/>
<path d="M147.526 221.754C148.436 222.056 148.436 222.962 147.526 223.264C146.616 223.566 145.402 223.566 144.796 223.264C143.885 222.962 143.885 222.056 144.796 221.754C145.706 221.452 146.919 221.452 147.526 221.754Z" fill="#16110D"/>
<path d="M154.808 217.527C155.718 217.829 155.718 218.734 154.808 219.036C153.898 219.338 152.684 219.338 152.078 219.036C151.167 218.734 151.167 217.829 152.078 217.527C152.988 217.225 154.201 217.225 154.808 217.527Z" fill="#16110D"/>
<path d="M162.089 213.601C163 213.903 163 214.809 162.089 215.111C161.179 215.413 159.966 215.413 159.359 215.111C158.449 214.809 158.449 213.903 159.359 213.601C159.966 212.997 161.179 212.997 162.089 213.601Z" fill="#16110D"/>
<path d="M82.9032 250.745C83.8134 251.047 83.8134 251.953 82.9032 252.255C81.993 252.557 80.7794 252.557 80.1726 252.255C79.2624 251.953 79.2624 251.047 80.1726 250.745C80.7794 250.141 81.993 250.141 82.9032 250.745Z" fill="#16110D"/>
<path d="M88.6675 248.631C89.6729 248.631 90.4879 248.09 90.4879 247.423C90.4879 246.756 89.6729 246.215 88.6675 246.215C87.6622 246.215 86.8472 246.756 86.8472 247.423C86.8472 248.09 87.6622 248.631 88.6675 248.631Z" fill="#16110D"/>
<path d="M97.1625 242.289C98.0727 242.591 98.0727 243.497 97.1625 243.799C96.2523 244.101 95.0387 244.101 94.4319 243.799C93.5217 243.497 93.5217 242.591 94.4319 242.289C95.3421 241.987 96.5557 241.987 97.1625 242.289Z" fill="#16110D"/>
<path d="M102.927 240.176C103.933 240.176 104.748 239.635 104.748 238.968C104.748 238.3 103.933 237.76 102.927 237.76C101.922 237.76 101.107 238.3 101.107 238.968C101.107 239.635 101.922 240.176 102.927 240.176Z" fill="#16110D"/>
<path d="M111.726 234.136C112.636 234.438 112.636 235.344 111.726 235.646C110.816 235.948 109.602 235.948 108.995 235.646C108.085 235.344 108.085 234.438 108.995 234.136C109.602 233.834 110.816 233.834 111.726 234.136Z" fill="#16110D"/>
<path d="M117.49 232.022C118.496 232.022 119.311 231.481 119.311 230.814C119.311 230.147 118.496 229.606 117.49 229.606C116.485 229.606 115.67 230.147 115.67 230.814C115.67 231.481 116.485 232.022 117.49 232.022Z" fill="#16110D"/>
<path d="M125.985 225.982C126.896 226.284 126.896 227.19 125.985 227.492C125.075 227.794 123.862 227.794 123.255 227.492C122.345 227.19 122.345 226.284 123.255 225.982C124.165 225.378 125.379 225.378 125.985 225.982Z" fill="#16110D"/>
<path d="M133.266 221.754C134.177 222.056 134.177 222.962 133.266 223.264C132.356 223.566 131.143 223.566 130.536 223.264C129.626 222.962 129.626 222.056 130.536 221.754C131.143 221.15 132.356 221.15 133.266 221.754Z" fill="#16110D"/>
<path d="M140.549 217.527C141.459 217.829 141.459 218.734 140.549 219.036C139.639 219.338 138.425 219.338 137.818 219.036C136.908 218.734 136.908 217.829 137.818 217.527C138.425 217.225 139.639 217.225 140.549 217.527Z" fill="#16110D"/>
<path d="M147.526 213.601C148.436 213.903 148.436 214.809 147.526 215.111C146.616 215.413 145.402 215.413 144.796 215.111C143.885 214.809 143.885 213.903 144.796 213.601C145.706 212.997 146.919 212.997 147.526 213.601Z" fill="#16110D"/>
<path d="M154.808 209.373C155.718 209.675 155.718 210.581 154.808 210.883C153.898 211.185 152.684 211.185 152.078 210.883C151.167 210.581 151.167 209.675 152.078 209.373C152.684 208.769 153.898 208.769 154.808 209.373Z" fill="#16110D"/>
<path d="M74.4078 248.631C75.4132 248.631 76.2282 248.09 76.2282 247.423C76.2282 246.756 75.4132 246.215 74.4078 246.215C73.4024 246.215 72.5874 246.756 72.5874 247.423C72.5874 248.09 73.4024 248.631 74.4078 248.631Z" fill="#16110D"/>
<path d="M82.9032 242.289C83.8134 242.591 83.8134 243.497 82.9032 243.799C81.993 244.101 80.7794 244.101 80.1726 243.799C79.2624 243.497 79.2624 242.591 80.1726 242.289C80.7794 241.987 81.993 241.987 82.9032 242.289Z" fill="#16110D"/>
<path d="M88.6675 240.176C89.6729 240.176 90.4879 239.635 90.4879 238.968C90.4879 238.3 89.6729 237.76 88.6675 237.76C87.6622 237.76 86.8472 238.3 86.8472 238.968C86.8472 239.635 87.6622 240.176 88.6675 240.176Z" fill="#16110D"/>
<path d="M97.1625 234.136C98.0727 234.438 98.0727 235.344 97.1625 235.646C96.2523 235.948 95.0387 235.948 94.4319 235.646C93.5217 235.344 93.5217 234.438 94.4319 234.136C95.3421 233.834 96.5557 233.834 97.1625 234.136Z" fill="#16110D"/>
<path d="M102.927 232.022C103.933 232.022 104.748 231.481 104.748 230.814C104.748 230.147 103.933 229.606 102.927 229.606C101.922 229.606 101.107 230.147 101.107 230.814C101.107 231.481 101.922 232.022 102.927 232.022Z" fill="#16110D"/>
<path d="M111.726 225.982C112.636 226.284 112.636 227.19 111.726 227.492C110.816 227.794 109.602 227.794 108.995 227.492C108.085 227.19 108.085 226.284 108.995 225.982C109.602 225.378 110.816 225.378 111.726 225.982Z" fill="#16110D"/>
<path d="M118.704 221.754C119.614 222.056 119.614 222.962 118.704 223.264C117.794 223.566 116.58 223.566 115.973 223.264C115.063 222.962 115.063 222.056 115.973 221.754C116.883 221.15 118.097 221.15 118.704 221.754Z" fill="#16110D"/>
<path d="M125.985 217.527C126.896 217.829 126.896 218.734 125.985 219.036C125.075 219.338 123.862 219.338 123.255 219.036C122.345 218.734 122.345 217.829 123.255 217.527C124.165 217.225 125.379 217.225 125.985 217.527Z" fill="#16110D"/>
<path d="M131.75 215.413C132.755 215.413 133.57 214.872 133.57 214.205C133.57 213.538 132.755 212.997 131.75 212.997C130.745 212.997 129.93 213.538 129.93 214.205C129.93 214.872 130.745 215.413 131.75 215.413Z" fill="#16110D"/>
<path d="M140.549 209.373C141.459 209.675 141.459 210.581 140.549 210.883C139.639 211.185 138.425 211.185 137.818 210.883C136.908 210.581 136.908 209.675 137.818 209.373C138.425 208.769 139.639 208.769 140.549 209.373Z" fill="#16110D"/>
<path d="M147.526 205.145C148.436 205.447 148.436 206.353 147.526 206.655C146.616 206.957 145.402 206.957 144.796 206.655C143.885 206.353 143.885 205.447 144.796 205.145C145.706 204.843 146.919 204.843 147.526 205.145Z" fill="#16110D"/>
<path d="M68.34 242.289C69.2502 242.591 69.2502 243.497 68.34 243.799C67.4298 244.101 66.2162 244.101 65.6094 243.799C64.6992 243.497 64.6992 242.591 65.6094 242.289C66.5196 241.987 67.7332 241.987 68.34 242.289Z" fill="#16110D"/>
<path d="M75.6212 238.364C76.5314 238.666 76.5314 239.572 75.6212 239.874C74.711 240.176 73.4974 240.176 72.8907 239.874C71.9805 239.572 71.9805 238.666 72.8907 238.364C73.8008 237.76 75.0144 237.76 75.6212 238.364Z" fill="#16110D"/>
<path d="M82.9032 234.136C83.8134 234.438 83.8134 235.344 82.9032 235.646C81.993 235.948 80.7794 235.948 80.1726 235.646C79.2624 235.344 79.2624 234.438 80.1726 234.136C80.7794 233.834 81.993 233.834 82.9032 234.136Z" fill="#16110D"/>
<path d="M88.6675 232.022C89.6729 232.022 90.4879 231.481 90.4879 230.814C90.4879 230.147 89.6729 229.606 88.6675 229.606C87.6622 229.606 86.8472 230.147 86.8472 230.814C86.8472 231.481 87.6622 232.022 88.6675 232.022Z" fill="#16110D"/>
<path d="M97.1625 225.982C98.0727 226.284 98.0727 227.19 97.1625 227.492C96.2523 227.794 95.0387 227.794 94.4319 227.492C93.5217 227.19 93.5217 226.284 94.4319 225.982C95.3421 225.378 96.5557 225.378 97.1625 225.982Z" fill="#16110D"/>
<path d="M104.444 221.754C105.354 222.056 105.354 222.962 104.444 223.264C103.534 223.566 102.32 223.566 101.713 223.264C100.803 222.962 100.803 222.056 101.713 221.754C102.32 221.15 103.837 221.15 104.444 221.754Z" fill="#16110D"/>
<path d="M111.726 217.527C112.636 217.829 112.636 218.734 111.726 219.036C110.816 219.338 109.602 219.338 108.995 219.036C108.085 218.734 108.085 217.829 108.995 217.527C109.602 217.225 110.816 217.225 111.726 217.527Z" fill="#16110D"/>
<path d="M118.704 213.601C119.614 213.903 119.614 214.809 118.704 215.111C117.794 215.413 116.58 215.413 115.973 215.111C115.063 214.809 115.063 213.903 115.973 213.601C116.883 212.997 118.097 212.997 118.704 213.601Z" fill="#16110D"/>
<path d="M125.985 209.373C126.896 209.675 126.896 210.581 125.985 210.883C125.075 211.185 123.862 211.185 123.255 210.883C122.345 210.581 122.345 209.675 123.255 209.373C124.165 208.769 125.379 208.769 125.985 209.373Z" fill="#16110D"/>
<path d="M133.266 205.145C134.177 205.447 134.177 206.353 133.266 206.655C132.356 206.957 131.143 206.957 130.536 206.655C129.626 206.353 129.626 205.447 130.536 205.145C131.143 204.843 132.356 204.843 133.266 205.145Z" fill="#16110D"/>
<path d="M61.3619 238.364C62.2721 238.666 62.2721 239.572 61.3619 239.874C60.4518 240.176 59.2382 240.176 58.6314 239.874C57.7212 239.572 57.7212 238.666 58.6314 238.364C59.2382 237.76 60.4518 237.76 61.3619 238.364Z" fill="#16110D"/>
<path d="M68.34 234.136C69.2502 234.438 69.2502 235.344 68.34 235.646C67.4298 235.948 66.2162 235.948 65.6094 235.646C64.6992 235.344 64.6992 234.438 65.6094 234.136C66.5196 233.834 67.7332 233.834 68.34 234.136Z" fill="#16110D"/>
<path d="M75.6212 229.908C76.5314 230.21 76.5314 231.116 75.6212 231.418C74.711 231.72 73.4974 231.72 72.8907 231.418C71.9805 231.116 71.9805 230.21 72.8907 229.908C73.8008 229.606 75.0144 229.606 75.6212 229.908Z" fill="#16110D"/>
<path d="M82.9032 225.982C83.8134 226.284 83.8134 227.19 82.9032 227.492C81.993 227.794 80.7794 227.794 80.1726 227.492C79.2624 227.19 79.2624 226.284 80.1726 225.982C80.7794 225.378 81.993 225.378 82.9032 225.982Z" fill="#16110D"/>
<path d="M90.1847 221.754C91.0949 222.056 91.0949 222.962 90.1847 223.264C89.2745 223.566 88.0609 223.566 87.4541 223.264C86.5439 222.962 86.5439 222.056 87.4541 221.754C88.0609 221.15 89.2745 221.15 90.1847 221.754Z" fill="#16110D"/>
<path d="M97.1625 217.527C98.0727 217.829 98.0727 218.734 97.1625 219.036C96.2523 219.338 95.0387 219.338 94.4319 219.036C93.5217 218.734 93.5217 217.829 94.4319 217.527C95.3421 217.225 96.5557 217.225 97.1625 217.527Z" fill="#16110D"/>
<path d="M104.444 213.601C105.354 213.903 105.354 214.809 104.444 215.111C103.534 215.413 102.32 215.413 101.713 215.111C100.803 214.809 100.803 213.903 101.713 213.601C102.32 212.997 103.837 212.997 104.444 213.601Z" fill="#16110D"/>
<path d="M110.209 211.185C111.214 211.185 112.029 210.644 112.029 209.977C112.029 209.31 111.214 208.769 110.209 208.769C109.203 208.769 108.388 209.31 108.388 209.977C108.388 210.644 109.203 211.185 110.209 211.185Z" fill="#16110D"/>
<path d="M54.0807 234.136C54.9909 234.438 54.9909 235.344 54.0807 235.646C53.1705 235.948 51.9569 235.948 51.3501 235.646C50.4399 235.344 50.4399 234.438 51.3501 234.136C51.9569 233.834 53.4739 233.834 54.0807 234.136Z" fill="#16110D"/>
<path d="M61.3619 229.908C62.2721 230.21 62.2721 231.116 61.3619 231.418C60.4518 231.72 59.2382 231.72 58.6314 231.418C57.7212 231.116 57.7212 230.21 58.6314 229.908C59.2382 229.606 60.4518 229.606 61.3619 229.908Z" fill="#16110D"/>
<path d="M67.1263 227.794C68.1317 227.794 68.9467 227.253 68.9467 226.586C68.9467 225.919 68.1317 225.378 67.1263 225.378C66.1209 225.378 65.3059 225.919 65.3059 226.586C65.3059 227.253 66.1209 227.794 67.1263 227.794Z" fill="#16110D"/>
<path d="M75.6212 221.754C76.5314 222.056 76.5314 222.962 75.6212 223.264C74.711 223.566 73.4974 223.566 72.8907 223.264C71.9805 222.962 71.9805 222.056 72.8907 221.754C73.8008 221.15 75.0144 221.15 75.6212 221.754Z" fill="#16110D"/>
<path d="M82.9032 217.527C83.8134 217.829 83.8134 218.734 82.9032 219.036C81.993 219.338 80.7794 219.338 80.1726 219.036C79.2624 218.734 79.2624 217.829 80.1726 217.527C80.7794 217.225 81.993 217.225 82.9032 217.527Z" fill="#16110D"/>
<path d="M90.1847 213.601C91.0949 213.903 91.0949 214.809 90.1847 215.111C89.2745 215.413 88.0609 215.413 87.4541 215.111C86.5439 214.809 86.5439 213.903 87.4541 213.601C88.0609 212.997 89.2745 212.997 90.1847 213.601Z" fill="#16110D"/>
<path d="M95.949 211.185C96.9544 211.185 97.7694 210.644 97.7694 209.977C97.7694 209.31 96.9544 208.769 95.949 208.769C94.9437 208.769 94.1287 209.31 94.1287 209.977C94.1287 210.644 94.9437 211.185 95.949 211.185Z" fill="#16110D"/>
<path d="M46.7985 229.908C47.7087 230.21 47.7087 231.116 46.7985 231.418C45.8883 231.72 44.6747 231.72 44.0679 231.418C43.1577 231.116 43.1577 230.21 44.0679 229.908C44.9781 229.606 46.1917 229.606 46.7985 229.908Z" fill="#16110D"/>
<path d="M54.0807 225.982C54.9909 226.284 54.9909 227.19 54.0807 227.492C53.1705 227.794 51.9569 227.794 51.3501 227.492C50.4399 227.19 50.4399 226.284 51.3501 225.982C51.9569 225.378 53.4739 225.378 54.0807 225.982Z" fill="#16110D"/>
<path d="M61.3619 221.754C62.2721 222.056 62.2721 222.962 61.3619 223.264C60.4518 223.566 59.2382 223.566 58.6314 223.264C57.7212 222.962 57.7212 222.056 58.6314 221.754C59.2382 221.15 60.4518 221.15 61.3619 221.754Z" fill="#16110D"/>
<path d="M68.34 217.527C69.2502 217.829 69.2502 218.734 68.34 219.036C67.4298 219.338 66.2162 219.338 65.6094 219.036C64.6992 218.734 64.6992 217.829 65.6094 217.527C66.5196 217.225 67.7332 217.225 68.34 217.527Z" fill="#16110D"/>
<path d="M75.6212 213.601C76.5314 213.903 76.5314 214.809 75.6212 215.111C74.711 215.413 73.4974 215.413 72.8907 215.111C71.9805 214.809 71.9805 213.903 72.8907 213.601C73.8008 212.997 75.0144 212.997 75.6212 213.601Z" fill="#16110D"/>
<path d="M81.3863 211.185C82.3917 211.185 83.2067 210.644 83.2067 209.977C83.2067 209.31 82.3917 208.769 81.3863 208.769C80.3809 208.769 79.5659 209.31 79.5659 209.977C79.5659 210.644 80.3809 211.185 81.3863 211.185Z" fill="#16110D"/>
<path d="M39.8209 225.982C40.7311 226.284 40.7311 227.19 39.8209 227.492C38.9107 227.794 37.6971 227.794 37.0904 227.492C36.1802 227.19 36.1802 226.284 37.0904 225.982C37.6971 225.378 38.9107 225.378 39.8209 225.982Z" fill="#16110D"/>
<path d="M46.7985 221.754C47.7087 222.056 47.7087 222.962 46.7985 223.264C45.8883 223.566 44.6747 223.566 44.0679 223.264C43.1577 222.962 43.1577 222.056 44.0679 221.754C44.9781 221.15 46.1917 221.15 46.7985 221.754Z" fill="#16110D"/>
<path d="M54.0807 217.527C54.9909 217.829 54.9909 218.734 54.0807 219.036C53.1705 219.338 51.9569 219.338 51.3501 219.036C50.4399 218.734 50.4399 217.829 51.3501 217.527C51.9569 217.225 53.4739 217.225 54.0807 217.527Z" fill="#16110D"/>
<path d="M61.3619 213.601C62.2721 213.903 62.2721 214.809 61.3619 215.111C60.4518 215.413 59.2382 215.413 58.6314 215.111C57.7212 214.809 57.7212 213.903 58.6314 213.601C59.2382 212.997 60.4518 212.997 61.3619 213.601Z" fill="#16110D"/>
<path d="M68.34 209.373C69.2502 209.675 69.2502 210.581 68.34 210.883C67.4298 211.185 66.2162 211.185 65.6094 210.883C64.6992 210.581 64.6992 209.675 65.6094 209.373C66.5196 208.769 67.7332 208.769 68.34 209.373Z" fill="#16110D"/>
<path d="M32.5394 221.754C33.4496 222.056 33.4496 222.962 32.5394 223.264C31.6292 223.566 30.4157 223.566 29.8089 223.264C28.8987 222.962 28.8987 222.056 29.8089 221.754C30.4157 221.15 31.6292 221.15 32.5394 221.754Z" fill="#16110D"/>
<path d="M39.8209 217.527C40.7311 217.829 40.7311 218.734 39.8209 219.036C38.9107 219.338 37.6971 219.338 37.0904 219.036C36.1802 218.734 36.1802 217.829 37.0904 217.527C37.6971 217.225 38.9107 217.225 39.8209 217.527Z" fill="#16110D"/>
<path d="M46.7985 213.601C47.7087 213.903 47.7087 214.809 46.7985 215.111C45.8883 215.413 44.6747 215.413 44.0679 215.111C43.1577 214.809 43.1577 213.903 44.0679 213.601C44.9781 212.997 46.1917 212.997 46.7985 213.601Z" fill="#16110D"/>
<path d="M54.0807 209.373C54.9909 209.675 54.9909 210.581 54.0807 210.883C53.1705 211.185 51.9569 211.185 51.3501 210.883C50.4399 210.581 50.4399 209.675 51.3501 209.373C51.9569 208.769 53.4739 208.769 54.0807 209.373Z" fill="#16110D"/>
<path d="M25.2579 217.527C26.1681 217.829 26.1681 218.734 25.2579 219.036C24.3477 219.338 23.1342 219.338 22.5274 219.036C21.6172 218.734 21.6172 217.829 22.5274 217.527C23.1342 217.225 24.6511 217.225 25.2579 217.527Z" fill="#16110D"/>
<path d="M32.5394 213.299C33.4496 213.601 33.4496 214.507 32.5394 214.809C31.6292 215.111 30.4157 215.111 29.8089 214.809C28.8987 214.507 28.8987 213.601 29.8089 213.299C30.4157 212.997 31.6292 212.997 32.5394 213.299Z" fill="#16110D"/>
<path d="M39.5172 209.373C40.4274 209.675 40.4274 210.581 39.5172 210.883C38.607 211.185 37.3934 211.185 36.7866 210.883C35.8765 210.581 35.8765 209.675 36.7866 209.373C37.6968 208.769 38.9104 208.769 39.5172 209.373Z" fill="#16110D"/>
<path d="M46.7985 205.145C47.7087 205.447 47.7087 206.353 46.7985 206.655C45.8883 206.957 44.6747 206.957 44.0679 206.655C43.1577 206.353 43.1577 205.447 44.0679 205.145C44.9781 204.843 46.1917 204.843 46.7985 205.145C47.7087 205.447 46.1917 204.843 46.7985 205.145Z" fill="#16110D"/>
<path d="M17.9762 213.299C18.8864 213.601 18.8864 214.507 17.9762 214.809C17.066 215.111 15.8524 215.111 15.2456 214.809C14.3354 214.507 14.3354 213.601 15.2456 213.299C16.1558 212.997 17.3694 212.997 17.9762 213.299Z" fill="#16110D"/>
<path d="M25.2579 209.373C26.1681 209.675 26.1681 210.581 25.2579 210.883C24.3477 211.185 23.1341 211.185 22.5273 210.883C21.9205 210.581 21.6171 209.675 22.5273 209.373C23.1341 208.769 24.6511 208.769 25.2579 209.373Z" fill="#16110D"/>
<path d="M32.5394 205.145C33.4496 205.447 33.4496 206.353 32.5394 206.655C31.6292 206.957 30.4157 206.957 29.8089 206.655C28.8987 206.353 28.8987 205.447 29.8089 205.145C30.4157 204.843 31.6292 204.843 32.5394 205.145Z" fill="#16110D"/>
<path d="M39.5172 200.917C40.4274 201.219 40.4274 202.125 39.5172 202.427C38.607 202.729 37.3934 202.729 36.7866 202.427C35.8765 202.125 35.8765 201.219 36.7866 200.917C37.6968 200.615 38.9104 200.615 39.5172 200.917C40.4274 201.521 38.9104 200.615 39.5172 200.917Z" fill="#16110D"/>
<path d="M10.9982 209.373C11.9084 209.675 11.9084 210.581 10.9982 210.883C10.088 211.185 8.8744 211.185 8.2676 210.883C7.35741 210.581 7.35741 209.675 8.2676 209.373C8.8744 208.769 10.088 208.769 10.9982 209.373Z" fill="#16110D"/>
<path d="M17.9762 205.145C18.8864 205.447 18.8864 206.353 17.9762 206.655C17.066 206.957 15.8524 206.957 15.2456 206.655C14.3354 206.353 14.3354 205.447 15.2456 205.145C16.1558 204.843 17.3694 204.843 17.9762 205.145Z" fill="#16110D"/>
<path d="M25.2579 200.917C26.1681 201.219 26.1681 202.125 25.2579 202.427C24.3477 202.729 23.1342 202.729 22.5274 202.427C21.6172 202.125 21.6172 201.219 22.5274 200.917C23.1342 200.615 24.6511 200.615 25.2579 200.917Z" fill="#16110D"/>
<path d="M32.5394 198.501C31.6292 198.803 30.4157 198.803 29.8089 198.501C28.8987 198.199 28.8987 197.293 29.8089 196.991C30.4157 196.387 33.1462 197.897 32.5394 198.501Z" fill="#16110D"/>
<path d="M3.71692 205.145C4.62711 205.447 4.62711 206.353 3.71692 206.655C2.80673 206.957 1.59315 206.957 0.986353 206.655C0.0761635 206.353 0.0761635 205.447 0.986353 205.145C1.59315 204.843 2.80673 204.843 3.71692 205.145Z" fill="#16110D"/>
<path d="M10.9982 200.917C11.9084 201.219 11.9084 202.125 10.9982 202.427C10.088 202.729 8.8744 202.729 8.2676 202.427C7.35741 202.125 7.35741 201.219 8.2676 200.917C8.8744 200.615 10.088 200.615 10.9982 200.917Z" fill="#16110D"/>
<path d="M17.9762 196.991C18.8864 197.293 18.8864 198.199 17.9762 198.501C17.066 198.803 15.8524 198.803 15.2456 198.501C14.3354 198.199 14.3354 197.293 15.2456 196.991C16.1558 196.387 17.3694 196.387 17.9762 196.991Z" fill="#16110D"/>
<path d="M196.677 227.794C197.682 227.794 198.497 227.253 198.497 226.586C198.497 225.919 197.682 225.378 196.677 225.378C195.672 225.378 194.857 225.919 194.857 226.586C194.857 227.253 195.672 227.794 196.677 227.794Z" fill="#16110D"/>
<path d="M203.958 223.868C204.963 223.868 205.778 223.328 205.778 222.66C205.778 221.993 204.963 221.452 203.958 221.452C202.953 221.452 202.138 221.993 202.138 222.66C202.138 223.328 202.953 223.868 203.958 223.868Z" fill="#16110D"/>
<path d="M212.453 217.527C213.363 217.829 213.363 218.734 212.453 219.036C211.543 219.338 210.329 219.338 209.722 219.036C208.812 218.734 208.812 217.829 209.722 217.527C210.329 217.225 211.543 217.225 212.453 217.527Z" fill="#16110D"/>
<path d="M219.735 213.601C220.645 213.903 220.645 214.809 219.735 215.111C218.825 215.413 217.611 215.413 217.004 215.111C216.094 214.809 216.094 213.903 217.004 213.601C217.611 212.997 218.825 212.997 219.735 213.601Z" fill="#16110D"/>
<path d="M226.713 209.373C227.623 209.675 227.623 210.581 226.713 210.883C225.803 211.185 224.589 211.185 223.983 210.883C223.073 210.581 223.073 209.675 223.983 209.373C224.893 208.769 226.106 208.769 226.713 209.373Z" fill="#16110D"/>
<path d="M233.995 205.145C234.905 205.447 234.905 206.353 233.995 206.655C233.084 206.957 231.871 206.957 231.264 206.655C230.354 206.353 230.354 205.447 231.264 205.145C231.871 204.843 233.084 204.843 233.995 205.145Z" fill="#16110D"/>
<path d="M241.276 201.219C242.186 201.521 242.186 202.427 241.276 202.729C240.366 203.031 239.152 203.031 238.545 202.729C237.635 202.427 237.635 201.521 238.545 201.219C239.152 200.615 240.366 200.615 241.276 201.219Z" fill="#16110D"/>
<path d="M247.041 198.803C248.046 198.803 248.861 198.263 248.861 197.595C248.861 196.928 248.046 196.387 247.041 196.387C246.036 196.387 245.221 196.928 245.221 197.595C245.221 198.263 246.036 198.803 247.041 198.803Z" fill="#16110D"/>
<path d="M254.322 194.877C255.328 194.877 256.143 194.337 256.143 193.669C256.143 193.002 255.328 192.462 254.322 192.462C253.317 192.462 252.502 193.002 252.502 193.669C252.502 194.337 253.317 194.877 254.322 194.877Z" fill="#16110D"/>
<path d="M262.817 188.536C263.727 188.838 263.727 189.744 262.817 190.046C261.907 190.348 260.693 190.348 260.087 190.046C259.177 189.744 259.177 188.838 260.087 188.536C260.997 188.234 261.907 188.234 262.817 188.536Z" fill="#16110D"/>
<path d="M270.099 184.61C271.009 184.912 271.009 185.818 270.099 186.12C269.188 186.422 267.975 186.422 267.368 186.12C266.458 185.818 266.458 184.912 267.368 184.61C267.975 184.006 269.188 184.006 270.099 184.61Z" fill="#16110D"/>
<path d="M277.077 180.382C277.987 180.684 277.987 181.59 277.077 181.892C276.167 182.194 274.953 182.194 274.346 181.892C273.436 181.59 273.436 180.684 274.346 180.382C275.257 180.08 276.47 180.08 277.077 180.382Z" fill="#16110D"/>
<path d="M284.358 176.154C285.268 176.456 285.268 177.362 284.358 177.664C283.448 177.966 282.234 177.966 281.628 177.664C280.718 177.362 280.718 176.456 281.628 176.154C282.234 175.852 283.448 175.852 284.358 176.154Z" fill="#16110D"/>
<path d="M190.912 221.754C191.822 222.056 191.822 222.962 190.912 223.264C190.002 223.566 188.788 223.566 188.182 223.264C187.271 222.962 187.271 222.056 188.182 221.754C188.788 221.452 190.002 221.452 190.912 221.754Z" fill="#16110D"/>
<path d="M197.891 217.527C198.801 217.829 198.801 218.734 197.891 219.036C196.98 219.338 195.767 219.338 195.16 219.036C194.25 218.734 194.25 217.829 195.16 217.527C196.07 217.225 197.284 217.225 197.891 217.527Z" fill="#16110D"/>
<path d="M203.958 215.413C204.963 215.413 205.778 214.872 205.778 214.205C205.778 213.538 204.963 212.997 203.958 212.997C202.953 212.997 202.138 213.538 202.138 214.205C202.138 214.872 202.953 215.413 203.958 215.413Z" fill="#16110D"/>
<path d="M212.453 209.373C213.363 209.675 213.363 210.581 212.453 210.883C211.543 211.185 210.329 211.185 209.722 210.883C208.812 210.581 208.812 209.675 209.722 209.373C210.329 208.769 211.543 208.769 212.453 209.373Z" fill="#16110D"/>
<path d="M219.735 205.145C220.645 205.447 220.645 206.353 219.735 206.655C218.825 206.957 217.611 206.957 217.004 206.655C216.094 206.353 216.094 205.447 217.004 205.145C217.611 204.843 218.825 204.843 219.735 205.145Z" fill="#16110D"/>
<path d="M226.713 201.219C227.623 201.521 227.623 202.427 226.713 202.729C225.803 203.031 224.589 203.031 223.983 202.729C223.073 202.427 223.073 201.521 223.983 201.219C224.893 200.615 226.106 200.615 226.713 201.219Z" fill="#16110D"/>
<path d="M233.995 196.991C234.905 197.293 234.905 198.199 233.995 198.501C233.084 198.803 231.871 198.803 231.264 198.501C230.354 198.199 230.354 197.293 231.264 196.991C231.871 196.387 233.084 196.387 233.995 196.991Z" fill="#16110D"/>
<path d="M241.276 192.764C242.186 193.066 242.186 193.971 241.276 194.273C240.366 194.575 239.152 194.575 238.545 194.273C237.635 193.971 237.635 193.066 238.545 192.764C239.152 192.462 240.366 192.462 241.276 192.764Z" fill="#16110D"/>
<path d="M248.254 188.536C249.164 188.838 249.164 189.744 248.254 190.046C247.344 190.348 246.131 190.348 245.524 190.046C244.614 189.744 244.614 188.838 245.524 188.536C246.434 188.234 247.647 188.234 248.254 188.536Z" fill="#16110D"/>
<path d="M254.322 186.422C255.328 186.422 256.143 185.881 256.143 185.214C256.143 184.547 255.328 184.006 254.322 184.006C253.317 184.006 252.502 184.547 252.502 185.214C252.502 185.881 253.317 186.422 254.322 186.422Z" fill="#16110D"/>
<path d="M262.817 180.382C263.727 180.684 263.727 181.59 262.817 181.892C261.907 182.194 260.693 182.194 260.087 181.892C259.48 181.59 259.176 180.684 260.087 180.382C260.693 180.08 261.907 180.08 262.817 180.382Z" fill="#16110D"/>
<path d="M270.099 176.154C271.009 176.456 271.009 177.362 270.099 177.664C269.188 177.966 267.975 177.966 267.368 177.664C266.458 177.362 266.458 176.456 267.368 176.154C267.975 175.852 269.188 175.852 270.099 176.154Z" fill="#16110D"/>
<path d="M277.077 172.228C277.987 172.53 277.987 173.436 277.077 173.738C276.167 174.04 274.953 174.04 274.346 173.738C273.436 173.436 273.436 172.53 274.346 172.228C275.257 171.624 276.47 171.624 277.077 172.228C277.987 172.53 276.47 171.624 277.077 172.228Z" fill="#16110D"/>
<path d="M183.631 217.527C184.541 217.829 184.541 218.734 183.631 219.036C182.721 219.338 181.507 219.338 180.9 219.036C179.99 218.734 179.99 217.829 180.9 217.527C181.507 217.225 183.024 217.225 183.631 217.527Z" fill="#16110D"/>
<path d="M190.912 213.601C191.822 213.903 191.822 214.809 190.912 215.111C190.002 215.413 188.788 215.413 188.182 215.111C187.271 214.809 187.271 213.903 188.182 213.601C188.788 212.997 190.002 212.997 190.912 213.601Z" fill="#16110D"/>
<path d="M197.891 209.373C198.801 209.675 198.801 210.581 197.891 210.883C196.98 211.185 195.767 211.185 195.16 210.883C194.25 210.581 194.25 209.675 195.16 209.373C196.07 208.769 197.284 208.769 197.891 209.373Z" fill="#16110D"/>
<path d="M205.172 205.145C206.082 205.447 206.082 206.353 205.172 206.655C204.262 206.957 203.048 206.957 202.441 206.655C201.531 206.353 201.531 205.447 202.441 205.145C203.352 204.843 204.565 204.843 205.172 205.145Z" fill="#16110D"/>
<path d="M212.453 201.219C213.363 201.521 213.363 202.427 212.453 202.729C211.543 203.031 210.329 203.031 209.722 202.729C208.812 202.427 208.812 201.521 209.722 201.219C210.329 200.615 211.543 200.615 212.453 201.219Z" fill="#16110D"/>
<path d="M219.735 196.991C220.645 197.293 220.645 198.199 219.735 198.501C218.825 198.803 217.611 198.803 217.004 198.501C216.094 198.199 216.094 197.293 217.004 196.991C217.611 196.387 218.825 196.387 219.735 196.991Z" fill="#16110D"/>
<path d="M226.713 192.764C227.623 193.066 227.623 193.971 226.713 194.273C225.803 194.575 224.589 194.575 223.983 194.273C223.073 193.971 223.073 193.066 223.983 192.764C224.893 192.462 226.106 192.462 226.713 192.764Z" fill="#16110D"/>
<path d="M233.995 188.536C234.905 188.838 234.905 189.744 233.995 190.046C233.084 190.348 231.871 190.348 231.264 190.046C230.354 189.744 230.354 188.838 231.264 188.536C231.871 188.234 233.084 188.234 233.995 188.536Z" fill="#16110D"/>
<path d="M241.276 184.61C242.186 184.912 242.186 185.818 241.276 186.12C240.366 186.422 239.152 186.422 238.545 186.12C237.635 185.818 237.635 184.912 238.545 184.61C239.152 184.006 240.366 184.006 241.276 184.61Z" fill="#16110D"/>
<path d="M248.254 180.382C249.164 180.684 249.164 181.59 248.254 181.892C247.344 182.194 246.131 182.194 245.524 181.892C244.614 181.59 244.614 180.684 245.524 180.382C246.434 180.08 247.647 180.08 248.254 180.382Z" fill="#16110D"/>
<path d="M255.536 176.154C256.446 176.456 256.446 177.362 255.536 177.664C254.626 177.966 253.412 177.966 252.805 177.664C251.895 177.362 251.895 176.456 252.805 176.154C253.716 175.852 254.929 175.852 255.536 176.154Z" fill="#16110D"/>
<path d="M262.817 172.228C263.727 172.53 263.727 173.436 262.817 173.738C261.907 174.04 260.693 174.04 260.087 173.738C259.177 173.436 259.177 172.53 260.087 172.228C260.693 171.624 261.907 171.624 262.817 172.228Z" fill="#16110D"/>
<path d="M270.099 168.001C271.009 168.303 271.009 169.208 270.099 169.51C269.188 169.812 267.975 169.812 267.368 169.51C266.458 169.208 266.458 168.303 267.368 168.001C267.975 167.699 269.188 167.699 270.099 168.001Z" fill="#16110D"/>
<path d="M176.349 213.601C177.259 213.903 177.259 214.809 176.349 215.111C175.439 215.413 174.225 215.413 173.619 215.111C172.708 214.809 172.708 213.903 173.619 213.601C174.529 212.997 175.742 212.997 176.349 213.601Z" fill="#16110D"/>
<path d="M183.631 209.373C184.541 209.675 184.541 210.581 183.631 210.883C182.721 211.185 181.507 211.185 180.9 210.883C179.99 210.581 179.99 209.675 180.9 209.373C181.81 209.071 183.024 208.769 183.631 209.373Z" fill="#16110D"/>
<path d="M190.912 205.145C191.822 205.447 191.822 206.353 190.912 206.655C190.002 206.957 188.788 206.957 188.182 206.655C187.271 206.353 187.271 205.447 188.182 205.145C188.788 204.843 190.002 204.843 190.912 205.145Z" fill="#16110D"/>
<path d="M196.677 203.031C197.682 203.031 198.497 202.49 198.497 201.823C198.497 201.156 197.682 200.615 196.677 200.615C195.672 200.615 194.857 201.156 194.857 201.823C194.857 202.49 195.672 203.031 196.677 203.031Z" fill="#16110D"/>
<path d="M205.172 196.991C206.082 197.293 206.082 198.199 205.172 198.501C204.262 198.803 203.048 198.803 202.441 198.501C201.531 198.199 201.531 197.293 202.441 196.991C203.352 196.387 204.565 196.387 205.172 196.991Z" fill="#16110D"/>
<path d="M212.453 192.764C213.363 193.066 213.363 193.971 212.453 194.273C211.543 194.575 210.329 194.575 209.722 194.273C208.812 193.971 208.812 193.066 209.722 192.764C210.329 192.462 211.543 192.462 212.453 192.764Z" fill="#16110D"/>
<path d="M218.218 190.65C219.224 190.65 220.039 190.109 220.039 189.442C220.039 188.775 219.224 188.234 218.218 188.234C217.213 188.234 216.398 188.775 216.398 189.442C216.398 190.109 217.213 190.65 218.218 190.65Z" fill="#16110D"/>
<path d="M226.713 184.61C227.623 184.912 227.623 185.818 226.713 186.12C225.803 186.422 224.589 186.422 223.983 186.12C223.073 185.818 223.073 184.912 223.983 184.61C224.893 184.006 226.106 184.006 226.713 184.61Z" fill="#16110D"/>
<path d="M233.995 180.382C234.905 180.684 234.905 181.59 233.995 181.892C233.084 182.194 231.871 182.194 231.264 181.892C230.354 181.59 230.354 180.684 231.264 180.382C231.871 180.08 233.084 180.08 233.995 180.382Z" fill="#16110D"/>
<path d="M241.276 176.154C242.186 176.456 242.186 177.362 241.276 177.664C240.366 177.966 239.152 177.966 238.545 177.664C237.635 177.362 237.635 176.456 238.545 176.154C239.152 175.852 240.366 175.852 241.276 176.154Z" fill="#16110D"/>
<path d="M248.254 172.228C249.164 172.53 249.164 173.436 248.254 173.738C247.344 174.04 246.131 174.04 245.524 173.738C244.614 173.436 244.614 172.53 245.524 172.228C246.434 171.624 247.647 171.624 248.254 172.228Z" fill="#16110D"/>
<path d="M169.371 209.373C170.282 209.675 170.282 210.581 169.371 210.883C168.461 211.185 167.248 211.185 166.641 210.883C165.731 210.581 165.731 209.675 166.641 209.373C167.248 208.769 168.461 208.769 169.371 209.373Z" fill="#16110D"/>
<path d="M176.349 205.145C177.259 205.447 177.259 206.353 176.349 206.655C175.439 206.957 174.225 206.957 173.619 206.655C172.708 206.353 172.708 205.447 173.619 205.145C174.529 204.843 175.742 204.843 176.349 205.145Z" fill="#16110D"/>
<path d="M183.63 201.219C184.541 201.521 184.541 202.427 183.63 202.729C182.72 203.031 181.507 203.031 180.9 202.729C180.293 202.427 179.99 201.521 180.9 201.219C181.507 200.615 183.024 200.615 183.63 201.219Z" fill="#16110D"/>
<path d="M190.912 196.991C191.822 197.293 191.822 198.199 190.912 198.501C190.002 198.803 188.788 198.803 188.182 198.501C187.271 198.199 187.271 197.293 188.182 196.991C189.092 196.689 190.002 196.387 190.912 196.991Z" fill="#16110D"/>
<path d="M197.891 192.764C198.801 193.066 198.801 193.971 197.891 194.273C196.98 194.575 195.767 194.575 195.16 194.273C194.25 193.971 194.25 193.066 195.16 192.764C196.07 192.462 197.284 192.462 197.891 192.764Z" fill="#16110D"/>
<path d="M205.172 188.536C206.082 188.838 206.082 189.744 205.172 190.046C204.262 190.348 203.048 190.348 202.441 190.046C201.531 189.744 201.531 188.838 202.441 188.536C203.352 188.234 204.565 188.234 205.172 188.536Z" fill="#16110D"/>
<path d="M210.936 186.422C211.942 186.422 212.757 185.881 212.757 185.214C212.757 184.547 211.942 184.006 210.936 184.006C209.931 184.006 209.116 184.547 209.116 185.214C209.116 185.881 209.931 186.422 210.936 186.422Z" fill="#16110D"/>
<path d="M219.735 180.382C220.645 180.684 220.645 181.59 219.735 181.892C218.825 182.194 217.611 182.194 217.004 181.892C216.094 181.59 216.094 180.684 217.004 180.382C217.611 180.08 218.825 180.08 219.735 180.382Z" fill="#16110D"/>
<path d="M223.982 176.154C224.892 175.852 226.106 175.852 226.712 176.154C227.623 176.456 227.623 177.362 226.712 177.664C225.802 177.966 224.589 177.966 223.982 177.664C223.375 177.362 223.375 176.758 223.982 176.154C224.892 175.852 223.375 176.758 223.982 176.154Z" fill="#16110D"/>
<path d="M162.089 205.145C163 205.447 163 206.353 162.089 206.655C161.179 206.957 159.966 206.957 159.359 206.655C158.449 206.353 158.449 205.447 159.359 205.145C159.966 204.843 161.179 204.843 162.089 205.145Z" fill="#16110D"/>
<path d="M169.068 200.917C169.978 201.219 169.978 202.125 169.068 202.427C168.158 202.729 166.944 202.729 166.337 202.427C165.427 202.125 165.427 201.219 166.337 200.917C167.248 200.615 168.461 200.615 169.068 200.917Z" fill="#16110D"/>
<path d="M147.83 279.434C148.74 279.736 148.74 280.642 147.83 280.944C146.92 281.246 145.706 281.246 145.099 280.944C144.189 280.642 144.189 279.736 145.099 279.434C145.706 279.132 146.92 279.132 147.83 279.434Z" fill="#16110D"/>
<path d="M153.594 277.32C154.6 277.32 155.415 276.779 155.415 276.112C155.415 275.445 154.6 274.904 153.594 274.904C152.589 274.904 151.774 275.445 151.774 276.112C151.774 276.779 152.589 277.32 153.594 277.32Z" fill="#16110D"/>
<path d="M162.089 271.28C163 271.582 163 272.488 162.089 272.79C161.179 273.092 159.966 273.092 159.359 272.79C158.449 272.488 158.449 271.582 159.359 271.28C160.269 270.978 161.483 270.676 162.089 271.28Z" fill="#16110D"/>
<path d="M169.371 267.052C170.282 267.354 170.282 268.26 169.371 268.562C168.461 268.864 167.248 268.864 166.641 268.562C165.731 268.26 165.731 267.354 166.641 267.052C167.551 266.75 168.461 266.75 169.371 267.052Z" fill="#16110D"/>
<path d="M176.653 262.825C177.563 263.127 177.563 264.033 176.653 264.335C175.743 264.637 174.529 264.637 173.922 264.335C173.012 264.033 173.012 263.127 173.922 262.825C174.529 262.523 175.743 262.523 176.653 262.825Z" fill="#16110D"/>
<path d="M183.631 258.899C184.541 259.201 184.541 260.107 183.631 260.409C182.721 260.711 181.507 260.711 180.9 260.409C179.99 260.107 179.99 259.201 180.9 258.899C181.81 258.295 183.024 258.295 183.631 258.899Z" fill="#16110D"/>
<path d="M190.912 254.671C191.822 254.973 191.822 255.879 190.912 256.181C190.002 256.483 188.788 256.483 188.182 256.181C187.271 255.879 187.271 254.973 188.182 254.671C188.788 254.067 190.002 254.067 190.912 254.671Z" fill="#16110D"/>
<path d="M198.194 250.443C199.104 250.745 199.104 251.651 198.194 251.953C197.284 252.255 196.07 252.255 195.463 251.953C194.553 251.651 194.553 250.745 195.463 250.443C196.07 250.141 197.284 250.141 198.194 250.443Z" fill="#16110D"/>
<path d="M205.172 246.517C206.082 246.819 206.082 247.725 205.172 248.027C204.262 248.329 203.048 248.329 202.441 248.027C201.531 247.725 201.531 246.819 202.441 246.517C203.352 245.913 204.565 245.913 205.172 246.517Z" fill="#16110D"/>
<path d="M212.453 242.29C213.363 242.592 213.363 243.497 212.453 243.799C211.543 244.101 210.329 244.101 209.722 243.799C208.812 243.497 208.812 242.592 209.722 242.29C210.633 241.686 211.846 241.686 212.453 242.29Z" fill="#16110D"/>
<path d="M133.266 279.434C134.177 279.736 134.177 280.642 133.266 280.944C132.356 281.246 131.143 281.246 130.536 280.944C129.626 280.642 129.626 279.736 130.536 279.434C131.446 279.132 132.66 279.132 133.266 279.434Z" fill="#16110D"/>
<path d="M140.549 275.206C141.459 275.508 141.459 276.414 140.549 276.716C139.639 277.018 138.425 277.018 137.818 276.716C136.908 276.414 136.908 275.508 137.818 275.206C138.425 274.904 139.942 274.904 140.549 275.206Z" fill="#16110D"/>
<path d="M147.83 271.28C148.74 271.582 148.74 272.488 147.83 272.79C146.92 273.092 145.706 273.092 145.099 272.79C144.189 272.488 144.189 271.582 145.099 271.28C145.706 270.676 146.92 270.676 147.83 271.28Z" fill="#16110D"/>
<path d="M154.808 267.052C155.718 267.354 155.718 268.26 154.808 268.562C153.898 268.864 152.684 268.864 152.078 268.562C151.167 268.26 151.167 267.354 152.078 267.052C152.988 266.75 154.201 266.75 154.808 267.052Z" fill="#16110D"/>
<path d="M162.089 262.825C163 263.127 163 264.033 162.089 264.335C161.179 264.637 159.966 264.637 159.359 264.335C158.449 264.033 158.449 263.127 159.359 262.825C160.269 262.523 161.483 262.523 162.089 262.825Z" fill="#16110D"/>
<path d="M169.371 258.899C170.282 259.201 170.282 260.107 169.371 260.409C168.461 260.711 167.248 260.711 166.641 260.409C166.034 260.107 165.731 259.201 166.641 258.899C167.248 258.295 168.461 258.295 169.371 258.899Z" fill="#16110D"/>
<path d="M176.653 254.671C177.563 254.973 177.563 255.879 176.653 256.181C175.743 256.483 174.529 256.483 173.922 256.181C173.012 255.879 173.012 254.973 173.922 254.671C174.529 254.067 175.743 254.067 176.653 254.671Z" fill="#16110D"/>
<path d="M183.631 250.443C184.541 250.745 184.541 251.651 183.631 251.953C182.721 252.255 181.507 252.255 180.9 251.953C179.99 251.651 179.99 250.745 180.9 250.443C181.81 250.141 183.024 250.141 183.631 250.443Z" fill="#16110D"/>
<path d="M189.396 248.329C190.401 248.329 191.216 247.788 191.216 247.121C191.216 246.454 190.401 245.913 189.396 245.913C188.39 245.913 187.575 246.454 187.575 247.121C187.575 247.788 188.39 248.329 189.396 248.329Z" fill="#16110D"/>
<path d="M198.194 242.29C199.104 242.592 199.104 243.497 198.194 243.799C197.284 244.101 196.07 244.101 195.463 243.799C194.553 243.497 194.553 242.592 195.463 242.29C196.07 241.686 197.284 241.686 198.194 242.29Z" fill="#16110D"/>
<path d="M205.172 238.062C206.082 238.364 206.082 239.27 205.172 239.572C204.262 239.874 203.048 239.874 202.441 239.572C201.531 239.27 201.531 238.364 202.441 238.062C203.352 237.76 204.565 237.76 205.172 238.062Z" fill="#16110D"/>
<path d="M124.772 277.32C125.777 277.32 126.592 276.779 126.592 276.112C126.592 275.445 125.777 274.904 124.772 274.904C123.766 274.904 122.951 275.445 122.951 276.112C122.951 276.779 123.766 277.32 124.772 277.32Z" fill="#16110D"/>
<path d="M133.266 271.28C134.177 271.582 134.177 272.488 133.266 272.79C132.356 273.092 131.143 273.092 130.536 272.79C129.626 272.488 129.626 271.582 130.536 271.28C131.446 270.676 132.66 270.676 133.266 271.28Z" fill="#16110D"/>
<path d="M139.031 269.166C140.037 269.166 140.852 268.626 140.852 267.958C140.852 267.291 140.037 266.75 139.031 266.75C138.026 266.75 137.211 267.291 137.211 267.958C137.211 268.626 138.026 269.166 139.031 269.166Z" fill="#16110D"/>
<path d="M146.313 264.939C147.318 264.939 148.133 264.398 148.133 263.731C148.133 263.063 147.318 262.523 146.313 262.523C145.308 262.523 144.493 263.063 144.493 263.731C144.493 264.398 145.308 264.939 146.313 264.939Z" fill="#16110D"/>
<path d="M154.808 258.899C155.718 259.201 155.718 260.107 154.808 260.409C153.898 260.711 152.684 260.711 152.078 260.409C151.167 260.107 151.167 259.201 152.078 258.899C152.988 258.295 154.201 258.295 154.808 258.899Z" fill="#16110D"/>
<path d="M162.089 254.671C163 254.973 163 255.879 162.089 256.181C161.179 256.483 159.966 256.483 159.359 256.181C158.449 255.879 158.449 254.973 159.359 254.671C160.269 254.369 161.483 254.067 162.089 254.671Z" fill="#16110D"/>
<path d="M169.371 250.443C170.282 250.745 170.282 251.651 169.371 251.953C168.461 252.255 167.248 252.255 166.641 251.953C165.731 251.651 165.731 250.745 166.641 250.443C167.248 250.141 168.461 250.141 169.371 250.443Z" fill="#16110D"/>
<path d="M176.653 246.517C177.563 246.819 177.563 247.725 176.653 248.027C175.743 248.329 174.529 248.329 173.922 248.027C173.012 247.725 173.012 246.819 173.922 246.517C174.529 245.913 175.743 245.913 176.653 246.517Z" fill="#16110D"/>
<path d="M183.63 242.29C184.541 242.592 184.541 243.497 183.63 243.799C182.72 244.101 181.507 244.101 180.9 243.799C180.293 243.497 179.99 242.592 180.9 242.29C181.81 241.686 183.024 241.686 183.63 242.29Z" fill="#16110D"/>
<path d="M189.396 240.176C190.401 240.176 191.216 239.635 191.216 238.968C191.216 238.3 190.401 237.76 189.396 237.76C188.39 237.76 187.575 238.3 187.575 238.968C187.575 239.635 188.39 240.176 189.396 240.176Z" fill="#16110D"/>
<path d="M198.194 233.834C199.104 234.136 199.104 235.042 198.194 235.344C197.284 235.646 196.07 235.646 195.463 235.344C194.553 235.042 194.553 234.136 195.463 233.834C196.07 233.532 197.284 233.532 198.194 233.834Z" fill="#16110D"/>
<path d="M218.218 240.176C219.224 240.176 220.039 239.635 220.039 238.968C220.039 238.3 219.224 237.76 218.218 237.76C217.213 237.76 216.398 238.3 216.398 238.968C216.398 239.635 217.213 240.176 218.218 240.176Z" fill="#16110D"/>
<path d="M225.5 235.948C226.505 235.948 227.32 235.407 227.32 234.74C227.32 234.073 226.505 233.532 225.5 233.532C224.494 233.532 223.679 234.073 223.679 234.74C223.679 235.407 224.494 235.948 225.5 235.948Z" fill="#16110D"/>
<path d="M233.995 229.908C234.905 230.21 234.905 231.116 233.995 231.418C233.084 231.72 231.871 231.72 231.264 231.418C230.354 231.116 230.354 230.21 231.264 229.908C232.174 229.304 233.388 229.304 233.995 229.908Z" fill="#16110D"/>
<path d="M241.276 225.68C242.186 225.982 242.186 226.888 241.276 227.19C240.366 227.492 239.152 227.492 238.545 227.19C237.635 226.888 237.635 225.982 238.545 225.68C239.152 225.378 240.366 225.378 241.276 225.68Z" fill="#16110D"/>
<path d="M248.557 221.452C249.468 221.754 249.468 222.66 248.557 222.962C247.647 223.264 246.434 223.264 245.827 222.962C244.917 222.66 244.917 221.754 245.827 221.452C246.434 221.15 247.647 221.15 248.557 221.452Z" fill="#16110D"/>
<path d="M255.536 217.527C256.446 217.829 256.446 218.734 255.536 219.036C254.626 219.338 253.412 219.338 252.805 219.036C251.895 218.734 251.895 217.829 252.805 217.527C253.716 216.923 254.929 216.923 255.536 217.527Z" fill="#16110D"/>
<path d="M262.817 213.299C263.727 213.601 263.727 214.507 262.817 214.809C261.907 215.111 260.693 215.111 260.087 214.809C259.177 214.507 259.177 213.601 260.087 213.299C260.997 212.997 262.21 212.997 262.817 213.299Z" fill="#16110D"/>
<path d="M270.099 209.071C271.009 209.373 271.009 210.279 270.099 210.581C269.188 210.883 267.975 210.883 267.368 210.581C266.458 210.279 266.458 209.373 267.368 209.071C267.975 208.769 269.188 208.769 270.099 209.071Z" fill="#16110D"/>
<path d="M277.38 205.145C278.29 205.447 278.29 206.353 277.38 206.655C276.47 206.957 275.256 206.957 274.649 206.655C273.739 206.353 273.739 205.447 274.649 205.145C275.256 204.541 276.47 204.541 277.38 205.145Z" fill="#16110D"/>
<path d="M283.145 203.031C284.15 203.031 284.965 202.49 284.965 201.823C284.965 201.156 284.15 200.615 283.145 200.615C282.14 200.615 281.325 201.156 281.325 201.823C281.325 202.49 282.14 203.031 283.145 203.031Z" fill="#16110D"/>
<path d="M291.64 196.689C292.55 196.991 292.55 197.897 291.64 198.199C290.73 198.501 289.516 198.501 288.909 198.199C287.999 197.897 287.999 196.991 288.909 196.689C289.516 196.387 290.73 196.387 291.64 196.689Z" fill="#16110D"/>
<path d="M298.921 192.764C299.831 193.066 299.831 193.971 298.921 194.273C298.011 194.575 296.797 194.575 296.191 194.273C295.281 193.971 295.281 193.066 296.191 192.764C296.797 192.16 298.011 192.16 298.921 192.764Z" fill="#16110D"/>
<path d="M212.453 233.834C213.363 234.136 213.363 235.042 212.453 235.344C211.543 235.646 210.329 235.646 209.722 235.344C208.812 235.042 208.812 234.136 209.722 233.834C210.633 233.532 211.846 233.532 212.453 233.834Z" fill="#16110D"/>
<path d="M219.735 229.908C220.645 230.21 220.645 231.116 219.735 231.418C218.825 231.72 217.611 231.72 217.004 231.418C216.094 231.116 216.094 230.21 217.004 229.908C217.611 229.304 218.825 229.304 219.735 229.908Z" fill="#16110D"/>
<path d="M227.017 225.68C227.927 225.982 227.927 226.888 227.017 227.19C226.107 227.492 224.893 227.492 224.286 227.19C223.679 226.888 223.376 225.982 224.286 225.68C225.196 225.378 226.107 225.378 227.017 225.68Z" fill="#16110D"/>
<path d="M233.995 221.452C234.905 221.754 234.905 222.66 233.995 222.962C233.084 223.264 231.871 223.264 231.264 222.962C230.354 222.66 230.354 221.754 231.264 221.452C232.174 221.15 233.388 221.15 233.995 221.452Z" fill="#16110D"/>
<path d="M239.759 219.338C240.764 219.338 241.579 218.798 241.579 218.131C241.579 217.463 240.764 216.923 239.759 216.923C238.753 216.923 237.938 217.463 237.938 218.131C237.938 218.798 238.753 219.338 239.759 219.338Z" fill="#16110D"/>
<path d="M248.557 213.299C249.468 213.601 249.468 214.507 248.557 214.809C247.647 215.111 246.434 215.111 245.827 214.809C244.917 214.507 244.917 213.601 245.827 213.299C246.434 212.997 247.647 212.997 248.557 213.299Z" fill="#16110D"/>
<path d="M255.536 209.071C256.446 209.373 256.446 210.279 255.536 210.581C254.626 210.883 253.412 210.883 252.805 210.581C251.895 210.279 251.895 209.373 252.805 209.071C253.716 208.769 254.929 208.769 255.536 209.071Z" fill="#16110D"/>
<path d="M262.817 205.145C263.727 205.447 263.727 206.353 262.817 206.655C261.907 206.957 260.693 206.957 260.087 206.655C259.177 206.353 259.177 205.447 260.087 205.145C260.997 204.541 262.21 204.541 262.817 205.145Z" fill="#16110D"/>
<path d="M268.582 203.031C269.587 203.031 270.402 202.49 270.402 201.823C270.402 201.156 269.587 200.615 268.582 200.615C267.576 200.615 266.761 201.156 266.761 201.823C266.761 202.49 267.576 203.031 268.582 203.031Z" fill="#16110D"/>
<path d="M277.38 196.689C278.29 196.991 278.29 197.897 277.38 198.199C276.47 198.501 275.256 198.501 274.649 198.199C273.739 197.897 273.739 196.991 274.649 196.689C275.256 196.387 276.47 196.387 277.38 196.689Z" fill="#16110D"/>
<path d="M284.358 192.764C285.268 193.066 285.268 193.971 284.358 194.273C283.448 194.575 282.234 194.575 281.628 194.273C280.718 193.971 280.718 193.066 281.628 192.764C282.538 192.16 283.751 192.16 284.358 192.764Z" fill="#16110D"/>
<path d="M290.123 190.348C291.128 190.348 291.943 189.807 291.943 189.14C291.943 188.473 291.128 187.932 290.123 187.932C289.117 187.932 288.302 188.473 288.302 189.14C288.302 189.807 289.117 190.348 290.123 190.348Z" fill="#16110D"/>
<path d="M298.921 184.308C299.831 184.61 299.831 185.516 298.921 185.818C298.011 186.12 296.797 186.12 296.191 185.818C295.281 185.516 295.281 184.61 296.191 184.308C296.797 184.006 298.011 184.006 298.921 184.308Z" fill="#16110D"/>
<path d="M205.172 229.908C206.082 230.21 206.082 231.116 205.172 231.418C204.262 231.72 203.048 231.72 202.441 231.418C201.531 231.116 201.531 230.21 202.441 229.908C203.352 229.304 204.565 229.304 205.172 229.908Z" fill="#16110D"/>
<path d="M212.453 225.68C213.363 225.982 213.363 226.888 212.453 227.19C211.543 227.492 210.329 227.492 209.722 227.19C208.812 226.888 208.812 225.982 209.722 225.68C210.633 225.378 211.846 225.378 212.453 225.68Z" fill="#16110D"/>
<path d="M219.735 221.452C220.645 221.754 220.645 222.66 219.735 222.962C218.825 223.264 217.611 223.264 217.004 222.962C216.094 222.66 216.094 221.754 217.004 221.452C217.611 221.15 218.825 221.15 219.735 221.452Z" fill="#16110D"/>
<path d="M225.5 219.338C226.505 219.338 227.32 218.798 227.32 218.131C227.32 217.463 226.505 216.923 225.5 216.923C224.494 216.923 223.679 217.463 223.679 218.131C223.679 218.798 224.494 219.338 225.5 219.338Z" fill="#16110D"/>
<path d="M233.995 213.299C234.905 213.601 234.905 214.507 233.995 214.809C233.084 215.111 231.871 215.111 231.264 214.809C230.354 214.507 230.354 213.601 231.264 213.299C232.174 212.997 233.388 212.997 233.995 213.299Z" fill="#16110D"/>
<path d="M241.276 209.071C242.186 209.373 242.186 210.279 241.276 210.581C240.366 210.883 239.152 210.883 238.545 210.581C237.635 210.279 237.635 209.373 238.545 209.071C239.152 208.769 240.366 208.769 241.276 209.071Z" fill="#16110D"/>
<path d="M248.557 205.145C249.468 205.447 249.468 206.353 248.557 206.655C247.647 206.957 246.434 206.957 245.827 206.655C244.917 206.353 244.917 205.447 245.827 205.145C246.434 204.541 247.647 204.541 248.557 205.145Z" fill="#16110D"/>
<path d="M255.536 200.917C256.446 201.219 256.446 202.125 255.536 202.427C254.626 202.729 253.412 202.729 252.805 202.427C251.895 202.125 251.895 201.219 252.805 200.917C253.716 200.313 254.929 200.313 255.536 200.917Z" fill="#16110D"/>
<path d="M261.604 198.803C262.609 198.803 263.424 198.263 263.424 197.595C263.424 196.928 262.609 196.387 261.604 196.387C260.598 196.387 259.783 196.928 259.783 197.595C259.783 198.263 260.598 198.803 261.604 198.803Z" fill="#16110D"/>
<path d="M270.099 192.764C271.009 193.066 271.009 193.971 270.099 194.273C269.188 194.575 267.975 194.575 267.368 194.273C266.458 193.971 266.458 193.066 267.368 192.764C267.975 192.16 269.188 192.16 270.099 192.764Z" fill="#16110D"/>
<path d="M277.38 188.536C278.29 188.838 278.29 189.744 277.38 190.046C276.47 190.348 275.256 190.348 274.649 190.046C273.739 189.744 273.739 188.838 274.649 188.536C275.256 187.932 276.47 187.932 277.38 188.536Z" fill="#16110D"/>
<path d="M284.358 184.308C285.268 184.61 285.268 185.516 284.358 185.818C283.448 186.12 282.234 186.12 281.628 185.818C280.718 185.516 280.718 184.61 281.628 184.308C282.538 184.006 283.751 184.006 284.358 184.308Z" fill="#16110D"/>
<path d="M290.123 182.194C291.128 182.194 291.943 181.653 291.943 180.986C291.943 180.319 291.128 179.778 290.123 179.778C289.117 179.778 288.302 180.319 288.302 180.986C288.302 181.653 289.117 182.194 290.123 182.194Z" fill="#16110D"/>
<path d="M292.55 164.377C292.55 164.377 292.55 164.075 292.55 164.377V159.847H289.82C289.516 159.847 289.516 159.545 289.213 159.545L175.136 94.0136C170.281 90.9937 161.483 91.5977 155.718 94.9196L10.088 179.174C9.1778 179.778 8.26761 180.382 7.35742 180.986H5.23364V190.952C5.23364 192.764 6.44723 194.576 8.571 195.783L122.648 261.315C127.502 264.335 136.301 263.731 142.065 260.409L287.696 176.154C290.73 174.342 292.247 172.228 292.55 170.115V167.397V164.377Z" fill="#FFBE2E"/>
<path d="M292.55 169.812V167.095V164.075C292.55 164.075 292.55 164.075 292.55 163.773V159.847H289.819C289.516 159.847 289.516 159.545 289.212 159.545L247.04 135.084C243.703 135.084 241.579 135.386 240.365 135.688C234.298 137.802 137.514 193.67 135.39 202.427C133.266 210.883 129.626 253.463 129.626 253.463V262.825C133.873 263.127 138.424 262.221 142.065 260.107L287.695 175.852C290.729 174.342 292.246 171.926 292.55 169.812Z" fill="#16110D"/>
<path d="M130.84 264.033C127.502 264.033 124.165 263.429 121.738 261.919L7.96417 196.387C5.537 194.877 4.02002 193.066 4.02002 190.65V179.778H6.75059C7.35738 179.174 8.26757 178.57 9.17776 177.966L154.808 93.7116C160.876 90.3897 169.978 89.7858 175.439 92.8056L289.516 158.337L289.82 158.639H293.157V169.812C293.157 172.53 291.033 174.946 287.999 176.758L142.369 261.013C139.335 263.127 135.087 264.033 130.84 264.033ZM6.1438 181.892V190.65C6.1438 192.16 7.05399 193.368 8.87436 194.575L122.951 260.107C127.806 262.825 135.997 262.523 141.459 259.201L287.089 174.946C289.82 173.436 291.337 171.624 291.337 169.51V163.773V160.451H289.213L288.909 160.149C288.606 159.847 288.606 159.847 288.303 159.847L174.529 94.9196C169.675 92.2017 161.483 92.5037 156.022 95.8255L10.3913 180.08C9.48116 180.684 8.57097 181.288 7.96417 181.892L7.66078 182.194H6.1438V181.892Z" fill="#16110D"/>
<path d="M122.648 251.651L8.57123 186.12C3.71689 183.1 4.32368 178.268 10.0882 174.946L155.719 90.6917C161.483 87.3699 170.282 87.0679 175.136 89.7858L289.213 155.317C294.067 158.337 293.461 163.169 287.696 166.491L142.066 250.745C136.301 254.067 127.503 254.369 122.648 251.651Z" fill="#FFBE2E"/>
<path d="M130.84 254.369C127.503 254.369 124.165 253.765 121.738 252.255L7.96442 187.026C5.53725 185.516 4.02026 183.704 4.02026 181.288C4.02026 178.57 5.84064 176.154 9.178 174.04L154.808 89.7857C160.876 86.4639 169.978 85.8599 175.439 88.8798L289.516 154.411C291.944 155.921 293.461 158.035 293.461 160.149C293.461 162.867 291.64 165.283 288.303 167.397L142.672 251.651C139.335 253.463 135.088 254.369 130.84 254.369ZM166.641 88.8798C163 88.8798 159.056 89.7857 156.022 91.5977L10.3916 175.852C7.66102 177.362 6.14404 179.174 6.14404 181.288C6.14404 182.798 7.05423 184.308 8.87461 185.214L122.952 250.745C127.806 253.463 135.998 253.161 141.459 249.839L287.089 165.585C289.82 164.075 291.337 161.961 291.337 160.149C291.337 158.639 290.427 157.129 288.606 156.223L174.529 90.6917C172.405 89.4837 169.675 88.8798 166.641 88.8798Z" fill="#16110D"/>
<path d="M133.267 245.309L132.66 245.007L22.8308 181.59L161.483 101.261L162.09 101.563L271.919 164.679L133.267 245.309Z" fill="#16110D"/>
<path d="M133.874 238.968L21.9207 174.644L163.303 92.8056L275.257 157.129L133.874 238.968Z" fill="#FFEECC"/>
<path d="M133.874 239.874L133.57 239.572L20.1001 174.644L163.303 91.5977L163.91 91.8996L277.38 157.129L133.874 239.874ZM24.0443 174.644L133.874 237.76L273.133 157.129L163.303 94.0136L24.0443 174.644Z" fill="#16110D"/>
<path d="M257.356 119.682V119.984L245.827 113.341C245.524 113.341 245.524 113.643 245.22 113.643C241.883 115.455 240.063 118.475 237.029 116.663C233.995 115.153 230.657 114.549 233.691 112.435C233.995 112.435 234.298 112.133 234.298 112.133L235.208 103.677L230.657 102.167L230.051 110.019L217.308 97.3354C215.184 96.1274 211.24 96.7314 210.633 98.5433L209.42 102.167H207.903V111.529C207.903 112.133 208.206 112.737 209.116 113.039L243.703 132.97C244.614 133.574 246.131 133.876 247.344 133.574L260.087 132.064C262.211 131.762 263.424 130.856 263.121 129.648V120.588L257.356 119.682Z" fill="#16110D"/>
<path d="M246.737 134.782C245.524 134.782 244.31 134.48 243.4 133.876L208.813 113.945C208.206 113.643 207.903 113.341 207.599 113.039L206.992 113.341V101.261L208.813 101.563L210.026 98.2414C210.33 97.3354 211.24 96.7314 212.454 96.1274C214.274 95.5235 216.701 95.5235 218.218 96.4294L218.522 96.7314L229.444 107.905L230.051 101.261L236.422 103.677V114.247L234.602 113.643C234.298 113.945 233.995 113.945 233.995 113.945C233.691 114.247 233.388 114.247 233.388 114.549C233.691 114.851 234.602 115.153 235.208 115.455C235.815 115.757 236.725 116.059 237.332 116.663C239.152 117.569 240.063 116.965 242.186 115.455C242.793 114.851 243.703 114.247 244.614 113.643L244.917 113.341L245.524 113.039L246.131 113.341L256.446 119.079L263.424 119.984C263.728 119.984 264.031 120.286 264.031 120.588V129.648C264.031 131.158 262.514 132.668 260.087 132.97L247.344 134.48C247.344 134.782 247.041 134.782 246.737 134.782ZM209.116 111.529C209.116 111.831 209.42 112.133 209.723 112.435L244.31 132.366C245.22 132.668 246.131 132.97 247.344 132.97L260.087 131.46C261.604 131.158 262.514 130.554 262.211 130.252V121.796L258.266 120.588V121.494L246.131 114.549C246.131 114.549 246.131 114.549 245.827 114.549C244.917 115.153 244.31 115.455 243.703 116.059C241.58 117.569 239.456 119.079 236.725 117.569C236.118 117.267 235.208 116.965 234.602 116.361C232.781 115.455 231.568 114.851 231.568 113.643C231.568 112.435 232.478 111.831 233.388 111.227C233.388 111.227 234.602 112.133 234.905 111.831V103.979L232.174 102.771L231.264 111.529L217.308 97.6374C216.398 97.0334 214.577 97.0334 213.364 97.3354C212.757 97.6374 212.15 97.9394 212.15 98.2414L210.33 102.771H209.116V111.529Z" fill="#16110D"/>
<path d="M262.211 119.079L246.131 109.717C245.827 109.717 245.827 110.019 245.524 110.019C242.187 111.831 237.029 111.831 233.995 110.019C230.657 108.207 230.657 105.187 233.995 103.375C234.298 103.375 234.602 103.073 234.602 103.073L217.915 93.4097C215.791 92.2017 211.847 92.8057 211.24 94.6176L208.206 101.865C207.903 102.771 208.206 103.375 209.42 103.979L244.007 123.91C244.917 124.514 246.434 124.816 247.648 124.514L260.39 123.004C263.424 122.4 264.334 120.287 262.211 119.079Z" fill="#FFEECC"/>
<path d="M246.738 125.42C245.524 125.42 244.311 125.118 243.401 124.514L208.813 104.583C207.296 103.677 206.69 102.469 207.296 101.261L210.33 94.0136C210.634 93.1076 211.544 92.5036 212.758 91.8997C214.578 91.2957 217.005 91.2957 218.522 92.2017L236.726 102.771L234.906 103.677C234.602 103.979 234.299 103.979 234.299 103.979C233.085 104.583 232.478 105.489 232.478 106.395C232.478 107.301 233.085 108.207 234.299 108.811C237.333 110.321 242.187 110.321 244.918 108.811L245.221 108.509H245.828L246.435 108.811L262.515 118.173C263.728 118.777 264.335 119.985 264.032 121.192C263.728 122.702 262.211 123.608 260.087 123.91L247.345 125.42C247.345 125.42 247.041 125.42 246.738 125.42ZM214.881 93.7116C214.275 93.7116 213.668 93.7116 213.061 94.0136C212.454 94.3156 211.847 94.6175 211.847 94.9195L208.813 102.167C208.51 102.469 209.117 103.073 209.42 103.073L244.007 123.004C244.918 123.306 245.828 123.608 247.041 123.608L259.784 122.098C261.301 121.796 261.908 121.192 261.908 120.89C261.908 120.588 261.301 120.286 261.301 119.984L245.828 110.925C245.828 110.925 245.828 110.925 245.524 110.925C241.884 113.039 236.423 113.039 232.782 110.925C230.961 109.717 229.748 108.207 229.748 106.697C229.748 105.187 230.355 103.979 231.872 103.073L216.702 94.3156C216.702 94.0136 215.792 93.7116 214.881 93.7116Z" fill="#16110D"/>
<path d="M264.031 151.089L174.529 99.4493C172.405 98.2414 172.709 96.1274 175.136 94.6175L180.597 91.2956C183.024 89.7857 186.968 89.7857 189.092 90.9937L278.898 142.634C281.021 143.841 280.718 145.955 278.291 147.465L272.83 150.787C270.099 151.995 266.155 152.297 264.031 151.089Z" fill="#FFEECC"/>
<path d="M267.672 152.901C266.155 152.901 264.638 152.599 263.424 151.995L173.922 100.355C172.709 99.7513 172.102 98.5433 172.102 97.3354C172.102 96.1274 173.012 94.6175 174.529 93.7115L179.99 90.3897C182.721 88.8797 186.968 88.5777 189.395 90.0877L279.201 141.728C280.414 142.332 281.021 143.539 281.021 144.747C281.021 145.955 280.111 147.465 278.594 148.371L273.133 151.391C271.616 152.297 269.492 152.901 267.672 152.901ZM264.638 150.183C266.458 151.391 269.795 151.089 271.919 149.881L277.38 146.559C278.291 145.955 278.897 145.351 278.897 144.747C278.897 144.143 278.291 143.841 277.987 143.539L188.485 91.8996C186.665 90.6917 183.327 90.9936 181.204 92.2016L175.743 95.5235C174.832 96.1274 174.226 96.7314 174.226 97.3354C174.226 97.9394 174.832 98.2414 175.136 98.5433L264.638 150.183Z" fill="#16110D"/>
<path d="M236.118 139.01L191.215 113.341C190.002 112.737 190.305 111.529 191.519 110.925L194.249 109.415C195.463 108.811 197.283 108.509 198.497 109.113L243.4 134.782C244.613 135.386 244.31 136.594 243.096 137.198L240.366 138.708C238.849 139.614 237.028 139.614 236.118 139.01Z" fill="#FFBE2E"/>
<path d="M237.939 140.52C237.029 140.52 236.119 140.218 235.512 139.916L190.609 114.247C189.699 113.945 189.396 113.039 189.396 112.435C189.396 111.529 190.002 110.623 190.912 110.321L193.643 108.811C195.16 107.905 197.587 107.905 198.801 108.509L243.703 134.178C244.614 134.48 244.917 135.386 244.917 135.99C244.917 136.896 244.31 137.802 243.4 138.104L240.67 139.614C239.759 140.218 238.849 140.52 237.939 140.52ZM196.677 109.717C196.07 109.717 195.463 110.019 194.857 110.321L192.126 111.831C191.823 112.133 191.519 112.435 191.519 112.435C191.519 112.435 191.519 112.435 191.823 112.737L236.725 138.406C237.636 138.708 238.849 138.708 240.063 138.104L242.793 136.594C243.097 136.292 243.4 135.99 243.4 135.99C243.4 135.99 243.4 135.99 243.097 135.688L198.194 110.019C197.587 109.717 197.284 109.717 196.677 109.717Z" fill="#16110D"/>
<path d="M155.415 161.055C151.774 158.941 145.706 158.941 141.762 161.055C138.122 163.169 138.122 166.793 141.762 168.907C145.403 171.02 151.471 171.02 155.415 168.907C159.359 166.793 159.359 163.169 155.415 161.055Z" fill="#16110D"/>
<path d="M170.281 151.089C158.146 144.143 139.335 144.143 127.199 151.089C120.828 154.713 117.49 159.545 117.49 164.981C117.49 170.416 120.828 175.248 127.199 178.872C133.267 182.496 141.155 184.006 148.74 184.006C156.629 184.006 164.214 182.194 170.281 178.872C176.653 175.248 179.99 170.416 179.99 164.981C179.99 159.545 176.653 154.713 170.281 151.089ZM167.854 174.342C157.235 180.382 140.245 180.382 129.93 174.342C125.379 171.624 122.952 168.303 122.952 164.981C122.952 161.659 125.379 158.035 129.93 155.619C135.087 152.599 142.066 151.089 149.044 151.089C156.022 151.089 162.697 152.599 168.158 155.619C172.709 158.337 175.136 161.659 175.136 164.981C174.832 168.303 172.405 171.926 167.854 174.342Z" fill="#16110D"/>
<path d="M155.415 155.921C151.774 153.807 145.706 153.807 142.066 155.921C138.425 158.035 138.425 161.659 142.066 163.773C145.706 165.887 151.774 165.887 155.718 163.773C159.359 161.659 159.359 158.035 155.415 155.921Z" fill="#FFBE2E"/>
<path d="M170.281 145.955C158.146 139.01 139.335 139.01 127.199 145.955C120.828 149.579 117.49 154.411 117.49 159.847C117.49 165.283 120.828 170.114 127.199 173.738C133.267 177.362 141.155 178.872 148.74 178.872C156.629 178.872 164.214 177.06 170.281 173.738C176.653 170.114 179.99 165.283 179.99 159.847C179.99 154.411 176.653 149.579 170.281 145.955ZM167.854 169.208C157.235 175.248 140.245 175.248 129.93 169.208C125.379 166.491 122.952 163.169 122.952 159.847C122.952 156.525 125.379 152.901 129.93 150.485C135.087 147.465 142.066 145.955 149.044 145.955C156.022 145.955 162.697 147.465 168.158 150.485C172.709 153.203 175.136 156.525 175.136 159.847C174.832 163.169 172.405 166.793 167.854 169.208Z" fill="#FFBE2E"/>
<path d="M144.796 4.02125C124.469 13.3829 106.265 41.4677 104.445 67.4387C103.838 77.7062 105.962 86.1619 109.906 91.8997L139.032 146.861L152.988 153.807C154.202 151.089 174.529 54.1512 175.743 51.1313C177.867 44.1856 192.733 39.9578 193.036 33.314C193.643 9.45702 164.517 -5.03838 144.796 4.02125ZM142.066 66.2307C134.178 70.1565 128.11 65.3247 128.413 55.3591C129.02 45.6955 135.695 34.824 143.583 31.2001C151.168 27.5763 157.236 32.1061 156.932 41.7697C156.629 51.1313 149.954 62.3049 142.066 66.2307Z" fill="#FFBE2E"/>
<path d="M147.223 8.85301C126.896 18.2146 108.692 46.2995 107.175 72.2704C106.871 77.1022 107.175 81.632 108.085 85.5579C131.143 99.4493 148.437 98.5433 166.641 110.925C172.405 84.9539 178.17 57.775 178.473 56.2651C180.597 49.3194 191.822 44.4876 191.822 37.8438C192.429 13.6848 166.944 -0.20662 147.223 8.85301ZM144.796 71.0625C136.604 74.9883 130.536 70.1565 131.143 60.1909C131.75 50.5273 138.425 39.6558 146.313 36.0319C153.898 32.408 159.966 36.9379 159.662 46.6015C159.056 55.9631 152.684 67.1366 144.796 71.0625Z" fill="#FFEECC"/>
<path d="M153.898 155.921L138.121 148.069L137.818 147.767L108.692 92.8056C104.444 86.7658 102.321 78.0082 102.927 67.4386C104.748 41.4677 122.952 12.1749 143.886 2.81328C154.505 -2.01852 168.158 -0.508584 179.08 6.43713C189.092 13.0809 194.857 23.0465 194.553 33.918C194.553 38.1458 190.002 41.4677 185.451 44.4876C181.811 46.9035 178.17 49.3194 177.26 52.0373C176.956 53.2452 173.012 70.7605 169.068 89.4837C161.18 126.628 155.415 152.901 154.505 154.713L153.898 155.921ZM140.245 145.955L152.078 151.693C153.898 144.143 160.876 112.435 166.034 88.5778C170.888 65.9287 173.922 52.0373 174.226 50.8293C175.439 47.2055 179.687 44.1856 183.631 41.4677C187.575 38.7498 191.519 36.3339 191.519 33.616C191.823 23.6504 186.665 14.5908 177.563 8.85303C167.551 2.2093 154.808 1.00135 145.403 5.53117C125.379 14.5908 107.782 42.6756 106.265 67.7406C105.658 77.4042 107.478 85.5579 111.423 91.2956L140.245 145.955ZM136.908 68.9486C135.087 68.9486 133.267 68.3446 132.053 67.4386C128.716 65.3247 126.896 60.7949 127.199 55.0571C127.806 44.7896 134.784 33.314 142.976 29.3882C146.92 27.5763 150.864 27.5763 153.595 29.3882C156.932 31.5021 158.752 35.7299 158.449 41.1657C158.146 51.4333 151.167 62.9088 142.672 67.1366C140.852 68.6466 138.728 68.9486 136.908 68.9486ZM148.74 31.2001C147.527 31.2001 146.01 31.5021 144.493 32.4081C137.211 36.0319 130.84 46.2995 130.233 55.3591C129.93 59.8889 131.143 63.5128 133.57 65.0227C135.694 66.2307 138.425 66.2307 141.459 64.7207C148.74 61.0969 155.112 50.5273 155.415 41.4677C155.415 37.2399 154.201 33.918 151.774 32.1061C150.864 31.5021 149.954 31.2001 148.74 31.2001Z" fill="#16110D"/>
<path d="M193.34 37.8438C193.643 13.6848 178.473 1.60532 158.752 10.665C138.425 20.0266 120.221 48.1114 118.704 74.0824C118.097 84.3499 120.221 92.8056 124.165 98.5434L153.291 153.807L186.665 66.8347C187.878 64.1168 189.092 61.0969 190.002 58.077C192.126 51.4333 193.34 44.4876 193.34 37.8438Z" fill="#FFBE2E"/>
<path d="M153.898 155.921L152.078 155.015L122.648 99.4493C118.401 93.4096 116.277 84.6519 116.884 74.0824C118.704 48.1114 137.212 19.1206 158.146 9.457C167.551 5.22918 176.35 5.22918 183.328 9.75899C191.216 14.8928 195.464 24.8584 195.16 38.1458C195.16 44.7896 193.947 51.7353 191.519 58.983C190.609 62.0029 189.396 65.0227 188.182 67.7406L153.898 155.921ZM171.495 9.457C167.855 9.457 163.607 10.363 159.359 12.4769C139.335 21.5365 121.738 49.6214 120.221 74.6863C119.615 84.3499 121.435 92.5036 125.379 98.2414L152.988 150.485L185.148 66.2307C186.362 63.5128 187.575 60.4929 188.486 57.775C190.609 50.8293 191.823 44.1856 192.126 37.8438C192.43 26.0663 188.486 16.7047 181.811 12.1749C178.473 10.363 175.136 9.457 171.495 9.457Z" fill="#16110D"/>
<path d="M154.504 91.8997L139.638 81.9341C137.514 80.4241 137.818 76.4983 139.941 72.5725C142.065 68.9486 145.706 67.1367 147.83 68.3446L155.415 73.4784L169.371 45.3936C171.191 41.4677 174.832 39.0518 177.259 39.9578C179.686 40.8638 179.99 44.7896 178.169 48.4134L156.932 90.3897C156.325 91.5977 155.111 92.2016 154.504 91.8997Z" fill="#16110D"/>
</svg>
