<svg width="177" height="177" viewBox="0 0 177 177" fill="none" xmlns="http://www.w3.org/2000/svg">
<rect width="177" height="177" rx="5" fill="#F4F2EE"/>
<rect x="47.99" y="47.99" width="81.02" height="81.02" rx="1.75" stroke="#AFAFAF" stroke-width="2.5"/>
<path d="M66.692 62.4C64.3314 62.4 62.4 64.3345 62.4 66.6988V108.561C62.4 110.926 64.3314 112.86 66.692 112.86H110.308C112.669 112.86 114.6 110.926 114.6 108.561V66.6988C114.6 64.3345 112.669 62.4 110.308 62.4H66.692ZM66.692 65.2659H110.308C111.095 65.2659 111.739 65.9107 111.739 66.6988V98.3873L101.461 90.5266C100.96 90.1683 100.245 90.0967 99.7443 90.455L90.8974 96.023L78.4738 84.4878C78.1876 84.2728 77.7584 84.1296 77.4008 84.2012C77.1862 84.2012 76.9716 84.3445 76.757 84.4161L65.2614 97.1693V66.6272C65.2614 65.8391 65.9052 65.2659 66.692 65.2659ZM97.8574 72.4306C94.7099 72.4306 92.1347 75.0099 92.1347 78.1624C92.1347 81.3148 94.7099 83.8941 97.8574 83.8941C101.005 83.8941 103.58 81.3148 103.58 78.1624C103.58 75.0099 101.005 72.4306 97.8574 72.4306ZM97.8574 75.2965C99.4311 75.2965 100.719 76.5861 100.719 78.1624C100.719 79.7386 99.4311 81.0283 97.8574 81.0283C96.2836 81.0283 94.996 79.7386 94.996 78.1624C94.996 76.5861 96.2836 75.2965 97.8574 75.2965ZM77.4008 87.63L89.9674 98.8888C90.4682 99.2471 91.1835 99.3187 91.6842 98.9605L100.531 93.3925L111.739 102.041V108.49C111.739 109.278 111.095 109.922 110.308 109.922H66.692C65.9052 109.922 65.2614 109.278 65.2614 108.49V101.55L77.4008 87.63Z" fill="#AFAFAF"/>
</svg>
