<svg width="364" height="289" viewBox="0 0 364 289" fill="none" xmlns="http://www.w3.org/2000/svg">
<path d="M44.3096 224.931H35.8909V221.165C35.8909 212.968 41.4295 203.441 48.519 199.232L54.7223 195.687C58.9317 193.25 63.141 193.029 66.4642 195.023C69.7874 197.016 71.7813 200.783 71.7813 205.435C71.7813 207.208 72.2244 208.315 72.6675 208.537C73.1106 208.758 74.2184 208.758 75.7692 207.872L82.6371 203.884C87.068 201.226 91.0559 194.579 91.0559 189.262C91.0559 181.065 96.5945 171.539 103.684 167.329L109.666 164.006C113.875 161.569 118.084 161.348 121.408 163.341C124.731 165.335 126.725 169.102 126.725 173.754C126.725 175.526 127.168 176.634 127.611 176.856C128.054 177.077 129.162 177.077 130.713 176.191L135.587 173.311C140.018 170.652 144.005 164.006 144.005 158.689C144.005 150.492 149.544 140.965 156.634 136.756L162.615 133.433C166.825 130.996 171.034 130.774 174.357 132.768C177.68 134.762 179.674 138.528 179.674 143.181V147.833H170.591V143.181C170.591 141.408 170.148 140.301 169.705 140.079C169.262 139.858 168.154 139.858 166.603 140.744L160.621 144.067C156.19 146.725 152.203 153.372 152.203 158.689C152.203 166.886 146.664 176.413 139.574 180.622L134.7 183.502C130.491 185.939 126.282 186.161 122.959 184.167C119.635 182.173 117.641 178.407 117.641 173.754C117.641 171.982 117.198 170.874 116.755 170.652C116.312 170.431 115.204 170.431 113.654 171.317L107.672 174.64C103.241 177.299 99.2531 183.945 99.2531 189.262C99.2531 197.46 93.7144 206.986 86.6249 211.195L79.757 215.183C75.5476 217.62 71.3383 217.842 68.0151 215.848C64.6919 213.854 62.698 210.088 62.698 205.435C62.698 203.663 62.2549 202.555 61.8118 202.334C61.3687 202.112 60.2609 202.112 58.7101 202.998L52.5068 206.764C48.0759 209.423 44.0881 216.069 44.0881 221.387V224.931H44.3096Z" fill="#FFEECC"/>
<path d="M169.039 126.343L180.781 201.004L362.892 28.1983L169.039 126.343Z" fill="#FFBE2E"/>
<path d="M179.895 203.22L167.932 125.9L168.596 125.457L362.449 27.0905L364 28.8629L181.446 201.89L179.895 203.22ZM170.369 127.008L181.446 198.567L356.246 32.8507L170.369 127.008Z" fill="#16110D"/>
<path d="M204.044 148.055L179.452 200.783L179.895 203.22L233.953 163.341L204.044 148.055Z" fill="#16110D"/>
<path d="M362.893 28.1983L109.887 90.2312L169.04 126.343L362.893 28.1983Z" fill="#FFBE2E"/>
<path d="M362.893 28.1983L279.148 192.142L206.038 147.833L362.893 28.1983Z" fill="#FFBE2E"/>
<path d="M362.892 39.9402L281.142 199.897L208.032 155.587L361.342 38.611C362.228 37.9463 363.335 38.8325 362.892 39.9402Z" fill="#FFEECC"/>
<path d="M167.71 125.679L170.369 127.008L171.034 131.882L341.403 45.4789L360.456 29.5276L336.086 41.7126L107.45 97.7638L166.603 134.097L168.818 132.99L167.71 125.679Z" fill="#FFEECC"/>
<path d="M363.778 28.8629L362.227 27.0905L168.153 74.723L109.665 89.1235L107.006 89.7881L169.039 127.894L240.599 91.5605L349.599 36.1739L352.036 34.8447L298.422 75.6092L205.373 146.947L204.043 148.055L279.591 193.915L291.997 169.766L363.778 28.8629ZM169.039 125.014L112.988 90.6743L173.249 75.8307L237.275 90.4528L169.039 125.014ZM240.377 88.9019L178.123 74.5014L309.499 42.3772L353.144 31.743L240.377 88.9019ZM278.483 190.37L208.031 147.833L256.993 110.392L290.446 167.108L278.483 190.37ZM291.776 164.671L258.987 109.063L321.906 60.9871L359.569 32.1861L291.776 164.671Z" fill="#16110D"/>
<path d="M255.664 138.75L242.815 153.815L262.754 173.089L275.382 157.803L255.664 138.75ZM262.532 165.557L249.018 152.707L256.107 144.288L269.622 156.917L262.532 165.557Z" fill="#FFBE2E"/>
<path d="M262.532 165.557L247.024 150.935L255.664 140.744L270.951 155.366L262.532 165.557ZM248.575 150.713L262.311 163.785L269.179 155.366L255.443 142.295L248.575 150.713Z" fill="#16110D"/>
<path d="M262.754 171.539L241.485 151.156L255.443 134.762L276.711 154.923L262.754 171.539ZM243.922 150.935L262.754 168.88L274.274 154.923L255.664 137.199L243.922 150.935Z" fill="#16110D"/>
<path d="M274.274 123.906C274.274 135.205 264.083 144.51 251.897 144.51C241.263 144.51 232.401 137.864 229.964 128.78L228.857 129.666C231.515 138.971 240.82 145.839 251.897 145.839C264.969 145.839 275.603 136.091 275.603 123.906C275.603 115.266 270.064 107.733 262.089 104.189L260.981 105.075C268.735 108.398 274.274 115.709 274.274 123.906Z" fill="#16110D"/>
<path d="M269.621 123.906C269.621 132.768 261.867 139.858 252.119 139.858C243.035 139.858 235.503 133.433 234.617 125.236L233.287 126.122C234.617 134.54 242.371 141.187 251.897 141.187C262.31 141.187 270.729 133.433 270.729 123.906C270.729 116.374 265.411 109.727 257.879 107.512L256.55 108.62C264.304 110.392 269.621 116.595 269.621 123.906Z" fill="#16110D"/>
<path d="M52.5063 227.59H44.0875V223.824C44.0875 215.626 49.6262 206.1 56.7157 201.89L62.9189 198.346C67.1283 195.909 71.3377 195.687 74.6609 197.681C77.9841 199.675 79.978 203.441 79.978 208.094C79.978 209.866 80.4211 210.974 80.8642 211.195C81.3073 211.417 82.415 211.417 83.9658 210.531L90.8338 206.543C95.2647 203.884 99.2525 197.238 99.2525 191.921C99.2525 183.724 104.791 174.197 111.881 169.988L117.862 166.665C122.072 164.228 126.281 164.006 129.604 166C132.928 167.994 134.921 171.76 134.921 176.413C134.921 178.185 135.365 179.293 135.808 179.514C136.251 179.736 137.358 179.736 138.909 178.85L143.783 175.97C148.214 173.311 152.202 166.665 152.202 161.348C152.202 153.15 157.741 143.624 164.83 139.414L170.812 136.091C175.021 133.654 179.231 133.433 182.554 135.427C185.877 137.421 187.871 141.187 187.871 145.839V150.492H179.452V145.839C179.452 144.067 179.009 142.959 178.566 142.738C178.123 142.516 177.015 142.516 175.464 143.402L169.04 146.947C164.609 149.606 160.621 156.252 160.621 161.569C160.621 169.766 155.082 179.293 147.993 183.502L143.119 186.382C138.909 188.819 134.7 189.041 131.377 187.047C128.054 185.053 126.06 181.287 126.06 176.634C126.06 174.862 125.617 173.754 125.173 173.533C124.73 173.311 123.623 173.311 122.072 174.197L116.09 177.52C111.659 180.179 107.671 186.825 107.671 192.142C107.671 200.34 102.133 209.866 95.0431 214.076L88.1752 217.842C83.9658 220.279 79.7565 220.5 76.4333 218.506C73.1101 216.513 71.1162 212.746 71.1162 208.094C71.1162 206.321 70.6731 205.214 70.23 204.992C69.7869 204.771 68.6791 204.771 67.1283 205.657L60.925 209.201C56.4941 211.86 52.5063 218.506 52.5063 223.824V227.59Z" fill="#16110D"/>
<path d="M6.42484 288.737H0V286.964C0 282.533 2.8801 277.659 6.64638 275.444L9.52648 273.671C11.9635 272.342 14.4005 272.121 16.1729 273.228C18.1668 274.336 19.2745 276.552 19.2745 279.21V279.432H19.4961L22.8193 277.659C24.5916 276.552 26.1424 273.893 26.1424 271.678C26.1424 267.247 29.0225 262.373 32.7888 260.157L35.6689 258.606C38.1059 257.277 40.5429 257.055 42.3153 258.163C44.3092 259.271 45.417 261.486 45.417 264.145V264.366H45.6385L48.0755 263.037C49.8479 261.929 51.3987 259.271 51.3987 257.055C51.3987 252.625 54.2788 247.751 58.0451 245.535L60.9252 243.984C63.3622 242.655 65.7992 242.433 67.5716 243.541C69.5655 244.649 70.6732 246.864 70.6732 249.523V251.738H64.2484V249.523V249.301H64.0268L61.1467 250.852C59.3744 251.96 57.8235 254.618 57.8235 256.834C57.8235 261.265 54.9434 266.139 51.1772 268.354L48.7402 269.684C46.3031 271.013 43.8661 271.234 42.0938 270.127C40.0999 269.019 38.9921 266.803 38.9921 264.145V263.923H38.7706L35.8905 265.474C34.1181 266.582 32.5673 269.24 32.5673 271.456C32.5673 275.887 29.6872 280.761 25.9209 282.976L22.5977 284.749C20.1607 286.078 17.7237 286.3 15.9513 285.192C13.9574 284.084 12.8497 281.869 12.8497 279.21V278.989H12.6281L9.74803 280.761C7.97566 281.869 6.42484 284.527 6.42484 286.743V288.737Z" fill="#FCBD32"/>
<path d="M230.63 38.1679H225.977V36.8386C225.977 33.2938 228.193 29.306 231.294 27.5336L233.731 26.2044C235.504 25.0966 237.497 25.0966 239.048 25.9828C240.599 26.869 241.485 28.6414 241.485 30.6353C241.485 31.0784 241.485 31.0784 241.485 31.2999C241.485 31.2999 241.707 31.0784 241.928 31.0784L244.587 29.5276C246.138 28.6414 247.467 26.2044 247.467 24.432C247.467 20.8873 249.682 16.8994 252.784 15.1271L255 13.7978C256.772 12.69 258.766 12.69 260.317 13.5762C261.868 14.4624 262.754 16.2348 262.754 18.2287C262.754 18.6718 262.754 18.6718 262.754 18.8933C262.754 18.8933 262.975 18.6718 263.197 18.6718L265.191 17.5641C266.742 16.6779 268.071 14.2409 268.071 12.4685C268.071 8.92376 270.286 4.93593 273.388 3.16356L275.603 1.83428C277.376 0.726553 279.37 0.726553 280.921 1.61274C282.471 2.49892 283.358 4.27129 283.358 6.26521V8.03758H278.705V6.04366C278.705 5.60057 278.705 5.60057 278.705 5.37902C278.705 5.37902 278.483 5.60057 278.262 5.60057L276.046 6.92985C274.496 7.81603 273.166 10.253 273.166 12.0254C273.166 15.5701 270.951 19.558 267.849 21.3303L265.855 22.4381C264.083 23.5458 262.089 23.5458 260.538 22.6596C258.987 21.7734 258.101 20.0011 258.101 18.0072C258.101 17.5641 258.101 17.5641 258.101 17.3425C258.101 17.3425 257.88 17.5641 257.658 17.5641L255.443 18.8933C253.892 19.7795 252.563 22.2165 252.563 23.9889C252.563 27.5336 250.347 31.5215 247.245 33.0723L244.587 34.6231C242.815 35.7308 240.821 35.7308 239.27 34.8447C237.719 33.9585 236.833 32.1861 236.833 30.1922C236.833 29.7491 236.833 29.7491 236.833 29.5276C236.833 29.5276 236.611 29.7491 236.39 29.7491L233.953 31.0784C232.402 31.9646 231.073 34.4016 231.073 36.1739V38.1679H230.63Z" fill="#FCBD32"/>
</svg>
