<svg width="40" height="40" viewBox="0 0 40 40" fill="none" xmlns="http://www.w3.org/2000/svg">
<path fill-rule="evenodd" clip-rule="evenodd" d="M39.3333 11.6667H33.3333V3.66667C33.3333 3.2985 33.0348 3 32.6667 3H3.33333C2.96517 3 2.66667 3.2985 2.66667 3.66667V20.3333H0.666667C0.298503 20.3333 0 20.6315 0 21V37C0 37.3685 0.298503 37.6667 0.666667 37.6667H24.6667C25.0348 37.6667 25.3333 37.3685 25.3333 37V30.3333H39.3333C39.7015 30.3333 40 30.0352 40 29.6667V12.3333C40 11.9652 39.7015 11.6667 39.3333 11.6667ZM4 4.33333H32V11.6667H10C9.63184 11.6667 9.33333 11.9652 9.33333 12.3333V20.3333H4V4.33333ZM24 36.3333H1.33333V33.6667H24V36.3333ZM24 29.6667V32.3333H1.33333V28.3333H24V29.6667ZM24 24.3333V27H1.33333V21.6667H10H21.3333H24V24.3333ZM24.6667 20.3333H22.0843C22.3812 19.1846 23.4264 18.3333 24.6667 18.3333C26.137 18.3333 27.3333 19.5296 27.3333 21C27.3333 22.2402 26.4821 23.2858 25.3333 23.582V21C25.3333 20.6315 25.0348 20.3333 24.6667 20.3333ZM38.6667 29H25.3333V24.9398C27.2221 24.6209 28.6667 22.9781 28.6667 21C28.6667 18.7943 26.8724 17 24.6667 17C22.6885 17 21.0458 18.4446 20.7269 20.3333H10.6667V13H38.6667V29ZM28.6667 16.3333H34.6667V25.6667H28.6667C28.2985 25.6667 28 25.9648 28 26.3333C28 26.7018 28.2985 27 28.6667 27H35.3333C35.7015 27 36 26.7018 36 26.3333V15.6667C36 15.2985 35.7015 15 35.3333 15H28.6667C28.2985 15 28 15.2985 28 15.6667C28 16.0348 28.2985 16.3333 28.6667 16.3333ZM20 7V9.66667C20 10.0348 19.7015 10.3333 19.3333 10.3333H7.33333C6.96517 10.3333 6.66667 10.0348 6.66667 9.66667V7C6.66667 6.63184 6.96517 6.33333 7.33333 6.33333H19.3333C19.7015 6.33333 20 6.63184 20 7ZM8 9H18.6667V7.66667H8V9Z" fill="#AFAFAF"/>
</svg>
