<svg width="40" height="40" viewBox="0 0 40 40" fill="none" xmlns="http://www.w3.org/2000/svg">
<path d="M38.5834 39.2H1.45084C1.10828 39.2 0.799988 38.8917 0.799988 38.5491C0.799988 38.2066 1.07403 37.8983 1.45084 37.8983H38.5834C38.9259 37.8983 39.2342 38.2066 39.2342 38.5491C39.2342 38.8917 38.9259 39.2 38.5834 39.2Z" fill="#AFAFAF"/>
<path d="M33.1368 30.876H6.86311C5.32162 30.876 4.08844 29.6428 4.08844 28.1013V1.45084C4.08844 1.10828 4.36248 0.799988 4.73929 0.799988H35.2949C35.6374 0.799988 35.9457 1.07403 35.9457 1.45084V28.1356C35.9115 29.6428 34.6783 30.876 33.1368 30.876ZM5.35588 2.06743V28.1013C5.35588 28.9235 6.04098 29.6086 6.86311 29.6086H33.1368C33.9589 29.6086 34.644 28.9235 34.644 28.1013V2.06743H5.35588Z" fill="#AFAFAF"/>
<path d="M13.3717 39.2H7.23999C6.89744 39.2 6.58914 38.9259 6.58914 38.5491V34.7468C6.58914 34.4042 6.86318 34.0959 7.23999 34.0959H13.3717C13.7142 34.0959 14.0225 34.37 14.0225 34.7468V38.5491C13.9882 38.9259 13.7142 39.2 13.3717 39.2ZM7.85658 37.9325H12.6866V35.3976H7.85658V37.9325Z" fill="#AFAFAF"/>
<path d="M32.7258 39.2H26.5941C26.2516 39.2 25.9433 38.9259 25.9433 38.5491V34.7468C25.9433 34.4042 26.2173 34.0959 26.5941 34.0959H32.7258C33.0684 34.0959 33.3767 34.37 33.3767 34.7468V38.5491C33.3424 38.9259 33.0684 39.2 32.7258 39.2ZM27.2107 37.9325H32.0407V35.3976H27.2107V37.9325Z" fill="#AFAFAF"/>
<path d="M32.76 35.3977H7.27421C7.00017 35.3977 6.76039 35.2264 6.65762 34.9524L5.97252 32.7943C5.93826 32.7258 5.93826 32.6573 5.93826 32.5888V25.6692C5.93826 24.436 6.34932 23.2371 7.10294 22.2437L8.09634 20.942L9.77484 13.4059C9.91186 12.7551 10.4942 12.2412 11.1793 12.207L19.1265 11.7617C19.7431 11.7274 20.3597 11.7274 20.942 11.7617L28.8207 12.1727C29.5058 12.207 30.0881 12.6865 30.2252 13.3716L31.9037 20.9078L32.8971 22.2095C33.6507 23.2029 34.0617 24.4018 34.0617 25.635V32.5888C34.0617 32.6573 34.0617 32.7258 34.0275 32.7943L33.3424 34.9524C33.2739 35.2264 33.0341 35.3977 32.76 35.3977ZM7.71953 34.1303H32.2462L32.76 32.5203V25.6692C32.76 24.7101 32.4517 23.7852 31.8694 23.0316L30.8075 21.6271C30.739 21.5586 30.7047 21.4559 30.7047 21.3873L28.992 13.7142C28.9577 13.6114 28.8892 13.5429 28.7522 13.5087L20.8735 13.0976C20.3254 13.0633 19.7431 13.0633 19.195 13.0976L11.2478 13.5429C11.145 13.5429 11.0423 13.6114 11.008 13.7485L9.29527 21.4216C9.26101 21.5244 9.22676 21.5929 9.1925 21.6614L8.13059 23.0658C7.54825 23.8195 7.23996 24.7786 7.23996 25.7035V32.5545L7.71953 34.1303Z" fill="#AFAFAF"/>
<path d="M20.0171 22.2094C16.2148 22.2094 12.4124 22.1067 8.64438 21.8669C8.4731 21.8669 8.30183 21.7641 8.16481 21.6271C8.06204 21.4901 8.02778 21.2846 8.06204 21.1133L9.7748 13.4401C9.98033 12.5838 10.7339 12.2755 11.1793 12.2412C11.1793 12.2412 11.1793 12.2412 11.2135 12.2412L19.9828 11.7616C20.0171 11.7616 20.0171 11.7616 20.0513 11.7616L28.8549 12.2069C29.7113 12.2412 30.1223 12.9606 30.2594 13.3374V13.3716L31.9721 21.0448C32.0064 21.216 31.9721 21.4216 31.8694 21.5586C31.7666 21.6956 31.5953 21.7984 31.3898 21.7984C27.6217 22.1067 23.8194 22.2094 20.0171 22.2094ZM9.4665 20.6337C16.4545 21.0448 23.5454 21.0448 30.5677 20.6337L29.0262 13.7484C28.9919 13.6799 28.9234 13.5086 28.7864 13.5086L20.0171 13.0633L11.282 13.5086C11.2135 13.5086 11.0765 13.5429 11.0422 13.7142L9.4665 20.6337Z" fill="#AFAFAF"/>
<path d="M23.751 30.8075H16.2491C15.3927 30.8075 14.6391 30.1909 14.5021 29.3345L14.1938 27.5532C14.1253 27.1764 14.2281 26.7996 14.4679 26.4913C14.7076 26.183 15.0844 26.046 15.4612 26.046H24.5389C24.9157 26.046 25.2925 26.2173 25.5323 26.4913C25.772 26.7996 25.8748 27.1764 25.8063 27.5532L25.498 29.3345C25.361 30.1909 24.6416 30.8075 23.751 30.8075ZM15.4612 27.3135C15.4612 27.3477 15.4612 27.3477 15.4612 27.3135L15.7353 29.0947C15.7695 29.3345 15.9751 29.5058 16.2149 29.5058H23.751C23.9908 29.5058 24.1963 29.3345 24.2306 29.0947L24.5389 27.3135H15.4612Z" fill="#AFAFAF"/>
<path d="M12.9263 30.8417L6.58911 30.8075C6.24656 30.8075 5.93826 30.5334 5.93826 30.1566V26.7311C5.93826 26.5256 6.00677 26.3543 6.17805 26.2515C6.31507 26.1145 6.5206 26.0803 6.69188 26.1145L11.3506 26.9367C12.344 27.1079 13.1661 27.8958 13.3374 28.8892L13.5772 30.1224C13.6114 30.2936 13.5772 30.4992 13.4401 30.6362C13.3031 30.7732 13.1318 30.8417 12.9263 30.8417ZM7.23996 29.54L12.1384 29.5743L12.0357 29.0947C11.9329 28.6151 11.5561 28.2383 11.0765 28.1698L7.17145 27.4847L7.23996 29.54Z" fill="#AFAFAF"/>
<path d="M27.0393 30.8417C26.8338 30.8417 26.6625 30.7732 26.5597 30.6019C26.4227 30.4649 26.3885 30.2594 26.4227 30.0881L26.6625 28.8549C26.868 27.8615 27.6559 27.0737 28.6493 26.9024L33.308 26.0803C33.4793 26.046 33.6848 26.1145 33.8218 26.2173C33.9589 26.3543 34.0616 26.5256 34.0616 26.6969L34.0274 30.1909C34.0274 30.5334 33.7533 30.8075 33.3765 30.8417H27.0393ZM32.7599 27.4847L28.8548 28.1698C28.3753 28.2383 27.9985 28.6151 27.8957 29.0947L27.8272 29.5743L32.7599 29.54V27.4847Z" fill="#AFAFAF"/>
</svg>
