<svg width="56" height="56" viewBox="0 0 56 56" fill="none" xmlns="http://www.w3.org/2000/svg">
<circle cx="28" cy="28" r="28" fill="#FFBE2E"/>
<path d="M43.3 32.2H42.6V27.4706C42.6 26.915 42.3769 26.3813 41.9831 25.9875L37.6125 21.6169C37.2188 21.2231 36.685 21 36.1294 21H34.2V18.9C34.2 17.7406 33.2594 16.8 32.1 16.8H18.1C16.9406 16.8 16 17.7406 16 18.9V32.9C16 34.0594 16.9406 35 18.1 35H18.8C18.8 37.3188 20.6813 39.2 23 39.2C25.3187 39.2 27.2 37.3188 27.2 35H32.8C32.8 37.3188 34.6812 39.2 37 39.2C39.3188 39.2 41.2 37.3188 41.2 35H43.3C43.685 35 44 34.685 44 34.3V32.9C44 32.515 43.685 32.2 43.3 32.2ZM23 37.1C21.8406 37.1 20.9 36.1594 20.9 35C20.9 33.8406 21.8406 32.9 23 32.9C24.1594 32.9 25.1 33.8406 25.1 35C25.1 36.1594 24.1594 37.1 23 37.1ZM37 37.1C35.8406 37.1 34.9 36.1594 34.9 35C34.9 33.8406 35.8406 32.9 37 32.9C38.1594 32.9 39.1 33.8406 39.1 35C39.1 36.1594 38.1594 37.1 37 37.1ZM40.5 28H34.2V23.1H36.1294L40.5 27.4706V28Z" fill="white"/>
</svg>
